STARTFONT 2.1
COMMENT
COMMENT Converted from OpenType font "NimbusSans-Regular.otf" by "otf2bdf 3.0".
COMMENT
FONT -FreeType-Nimbus Sans-Medium-R-Normal--14-100-100-100-P-75-ISO10646-1
SIZE 10 100 100
FONTBOUNDINGBOX 17 20 -3 -4
STARTPROPERTIES 19
FOUNDRY "FreeType"
FAMILY_NAME "Nimbus Sans"
WEIGHT_NAME "Medium"
SLANT "R"
SETWIDTH_NAME "Normal"
ADD_STYLE_NAME ""
PIXEL_SIZE 14
POINT_SIZE 100
RESOLUTION_X 100
RESOLUTION_Y 100
SPACING "P"
AVERAGE_WIDTH 75
CHARSET_REGISTRY "ISO10646"
CHARSET_ENCODING "1"
FONT_ASCENT 10
FONT_DESCENT 3
COPYRIGHT "(URW)++,Copyright 2014 by (URW)++ Design & Development"
_OTF_FONTFILE "NimbusSans-Regular.otf"
_OTF_PSNAME "NimbusSans-Regular"
ENDPROPERTIES
CHARS 854
STARTCHAR 0020
ENCODING 32
SWIDTH 288 0
DWIDTH 4 0
BBX 0 0 0 0
BITMAP
ENDCHAR
STARTCHAR 0021
ENCODING 33
SWIDTH 288 0
DWIDTH 4 0
BBX 1 11 2 0
BITMAP
80
80
80
80
80
80
80
80
80
00
80
ENDCHAR
STARTCHAR 0022
ENCODING 34
SWIDTH 360 0
DWIDTH 5 0
BBX 3 4 1 6
BITMAP
A0
A0
A0
A0
ENDCHAR
STARTCHAR 0023
ENCODING 35
SWIDTH 576 0
DWIDTH 8 0
BBX 8 10 0 0
BITMAP
12
16
34
7F
24
24
FE
28
48
48
ENDCHAR
STARTCHAR 0024
ENCODING 36
SWIDTH 576 0
DWIDTH 8 0
BBX 6 13 1 -2
BITMAP
20
78
AC
A4
A0
E0
3C
24
A4
A4
F8
20
20
ENDCHAR
STARTCHAR 0025
ENCODING 37
SWIDTH 864 0
DWIDTH 12 0
BBX 12 10 0 0
BITMAP
7080
4900
8900
4A00
7200
0400
04E0
0910
0910
10E0
ENDCHAR
STARTCHAR 0026
ENCODING 38
SWIDTH 648 0
DWIDTH 9 0
BBX 7 10 1 0
BITMAP
38
48
48
68
30
D2
8A
84
CE
72
ENDCHAR
STARTCHAR 0027
ENCODING 39
SWIDTH 216 0
DWIDTH 3 0
BBX 1 4 1 6
BITMAP
80
80
80
80
ENDCHAR
STARTCHAR 0028
ENCODING 40
SWIDTH 360 0
DWIDTH 5 0
BBX 3 13 1 -2
BITMAP
20
40
40
C0
80
80
80
80
80
C0
40
40
20
ENDCHAR
STARTCHAR 0029
ENCODING 41
SWIDTH 360 0
DWIDTH 5 0
BBX 3 13 1 -2
BITMAP
80
80
40
40
40
40
60
40
40
40
40
80
80
ENDCHAR
STARTCHAR 002A
ENCODING 42
SWIDTH 360 0
DWIDTH 5 0
BBX 4 4 1 7
BITMAP
40
F0
40
A0
ENDCHAR
STARTCHAR 002B
ENCODING 43
SWIDTH 576 0
DWIDTH 8 0
BBX 6 7 1 0
BITMAP
10
10
10
FC
10
10
10
ENDCHAR
STARTCHAR 002C
ENCODING 44
SWIDTH 288 0
DWIDTH 4 0
BBX 2 3 1 -2
BITMAP
C0
40
80
ENDCHAR
STARTCHAR 002D
ENCODING 45
SWIDTH 360 0
DWIDTH 5 0
BBX 3 1 1 3
BITMAP
E0
ENDCHAR
STARTCHAR 002E
ENCODING 46
SWIDTH 288 0
DWIDTH 4 0
BBX 2 1 1 0
BITMAP
C0
ENDCHAR
STARTCHAR 002F
ENCODING 47
SWIDTH 288 0
DWIDTH 4 0
BBX 4 11 0 0
BITMAP
10
20
20
20
20
40
40
40
80
80
80
ENDCHAR
STARTCHAR 0030
ENCODING 48
SWIDTH 576 0
DWIDTH 8 0
BBX 6 10 1 0
BITMAP
70
C8
8C
84
84
84
84
8C
C8
70
ENDCHAR
STARTCHAR 0031
ENCODING 49
SWIDTH 576 0
DWIDTH 8 0
BBX 4 10 1 0
BITMAP
10
30
F0
10
10
10
10
10
10
10
ENDCHAR
STARTCHAR 0032
ENCODING 50
SWIDTH 576 0
DWIDTH 8 0
BBX 6 10 1 0
BITMAP
78
CC
84
04
0C
18
60
C0
80
FC
ENDCHAR
STARTCHAR 0033
ENCODING 51
SWIDTH 576 0
DWIDTH 8 0
BBX 6 10 1 0
BITMAP
78
88
8C
0C
38
0C
04
84
8C
78
ENDCHAR
STARTCHAR 0034
ENCODING 52
SWIDTH 576 0
DWIDTH 8 0
BBX 7 10 0 0
BITMAP
04
0C
1C
14
24
44
44
FE
04
04
ENDCHAR
STARTCHAR 0035
ENCODING 53
SWIDTH 576 0
DWIDTH 8 0
BBX 6 10 1 0
BITMAP
FC
80
80
F8
8C
04
04
84
8C
78
ENDCHAR
STARTCHAR 0036
ENCODING 54
SWIDTH 576 0
DWIDTH 8 0
BBX 6 10 1 0
BITMAP
78
CC
84
80
F8
CC
84
84
CC
78
ENDCHAR
STARTCHAR 0037
ENCODING 55
SWIDTH 576 0
DWIDTH 8 0
BBX 6 10 1 0
BITMAP
FC
04
08
18
10
30
20
20
60
40
ENDCHAR
STARTCHAR 0038
ENCODING 56
SWIDTH 576 0
DWIDTH 8 0
BBX 6 10 1 0
BITMAP
78
CC
84
8C
70
8C
84
84
8C
78
ENDCHAR
STARTCHAR 0039
ENCODING 57
SWIDTH 576 0
DWIDTH 8 0
BBX 6 10 1 0
BITMAP
78
88
84
84
8C
74
04
8C
C8
70
ENDCHAR
STARTCHAR 003A
ENCODING 58
SWIDTH 288 0
DWIDTH 4 0
BBX 1 8 2 0
BITMAP
80
00
00
00
00
00
00
80
ENDCHAR
STARTCHAR 003B
ENCODING 59
SWIDTH 288 0
DWIDTH 4 0
BBX 1 10 2 -2
BITMAP
80
00
00
00
00
00
00
80
80
80
ENDCHAR
STARTCHAR 003C
ENCODING 60
SWIDTH 576 0
DWIDTH 8 0
BBX 6 6 1 1
BITMAP
0C
70
80
E0
18
04
ENDCHAR
STARTCHAR 003D
ENCODING 61
SWIDTH 576 0
DWIDTH 8 0
BBX 6 3 1 2
BITMAP
FC
00
FC
ENDCHAR
STARTCHAR 003E
ENCODING 62
SWIDTH 576 0
DWIDTH 8 0
BBX 6 6 1 1
BITMAP
E0
38
04
1C
60
80
ENDCHAR
STARTCHAR 003F
ENCODING 63
SWIDTH 576 0
DWIDTH 8 0
BBX 6 11 1 0
BITMAP
78
CC
84
04
0C
18
30
30
00
00
30
ENDCHAR
STARTCHAR 0040
ENCODING 64
SWIDTH 1008 0
DWIDTH 14 0
BBX 13 13 0 -2
BITMAP
07C0
1860
3010
6358
44C8
48C8
C888
C888
4990
46E0
2000
1840
0FC0
ENDCHAR
STARTCHAR 0041
ENCODING 65
SWIDTH 648 0
DWIDTH 9 0
BBX 9 11 0 0
BITMAP
0C00
1C00
1400
1600
3200
2200
2300
7F00
4100
4180
C180
ENDCHAR
STARTCHAR 0042
ENCODING 66
SWIDTH 648 0
DWIDTH 9 0
BBX 8 11 1 0
BITMAP
FC
86
82
82
86
FC
82
83
83
82
FC
ENDCHAR
STARTCHAR 0043
ENCODING 67
SWIDTH 720 0
DWIDTH 10 0
BBX 8 11 1 0
BITMAP
3C
62
C1
80
80
80
80
81
C1
63
3C
ENDCHAR
STARTCHAR 0044
ENCODING 68
SWIDTH 720 0
DWIDTH 10 0
BBX 8 11 1 0
BITMAP
FC
C6
C3
C1
C1
C1
C1
C1
C3
C6
FC
ENDCHAR
STARTCHAR 0045
ENCODING 69
SWIDTH 648 0
DWIDTH 9 0
BBX 8 11 1 0
BITMAP
FE
C0
C0
C0
C0
FE
C0
C0
C0
C0
FF
ENDCHAR
STARTCHAR 0046
ENCODING 70
SWIDTH 576 0
DWIDTH 8 0
BBX 7 11 1 0
BITMAP
FE
C0
C0
C0
C0
FC
C0
C0
C0
C0
C0
ENDCHAR
STARTCHAR 0047
ENCODING 71
SWIDTH 792 0
DWIDTH 11 0
BBX 9 11 1 0
BITMAP
3E00
6300
C100
8000
8000
8780
8080
8080
C180
6380
3C80
ENDCHAR
STARTCHAR 0048
ENCODING 72
SWIDTH 720 0
DWIDTH 10 0
BBX 8 11 1 0
BITMAP
81
81
81
81
81
FF
81
81
81
81
81
ENDCHAR
STARTCHAR 0049
ENCODING 73
SWIDTH 288 0
DWIDTH 4 0
BBX 2 11 1 0
BITMAP
C0
C0
C0
C0
C0
C0
C0
C0
C0
C0
C0
ENDCHAR
STARTCHAR 004A
ENCODING 74
SWIDTH 504 0
DWIDTH 7 0
BBX 6 11 0 0
BITMAP
04
04
04
04
04
04
04
C4
C4
CC
78
ENDCHAR
STARTCHAR 004B
ENCODING 75
SWIDTH 648 0
DWIDTH 9 0
BBX 8 11 1 0
BITMAP
83
86
8C
98
B0
F8
C8
8C
86
82
83
ENDCHAR
STARTCHAR 004C
ENCODING 76
SWIDTH 576 0
DWIDTH 8 0
BBX 6 11 1 0
BITMAP
80
80
80
80
80
80
80
80
80
80
FC
ENDCHAR
STARTCHAR 004D
ENCODING 77
SWIDTH 864 0
DWIDTH 12 0
BBX 10 11 1 0
BITMAP
C0C0
C1C0
E1C0
A1C0
A3C0
B2C0
92C0
96C0
94C0
8CC0
8CC0
ENDCHAR
STARTCHAR 004E
ENCODING 78
SWIDTH 720 0
DWIDTH 10 0
BBX 8 11 1 0
BITMAP
C1
C1
A1
B1
91
99
89
8D
85
83
83
ENDCHAR
STARTCHAR 004F
ENCODING 79
SWIDTH 792 0
DWIDTH 11 0
BBX 9 11 1 0
BITMAP
3E00
6300
C180
8080
8080
8080
8080
8080
C180
6300
3E00
ENDCHAR
STARTCHAR 0050
ENCODING 80
SWIDTH 648 0
DWIDTH 9 0
BBX 8 11 1 0
BITMAP
FC
C2
C3
C3
C2
FE
C0
C0
C0
C0
C0
ENDCHAR
STARTCHAR 0051
ENCODING 81
SWIDTH 792 0
DWIDTH 11 0
BBX 9 11 1 0
BITMAP
3E00
6300
C180
8080
8080
8080
8080
8080
C780
6300
3F80
ENDCHAR
STARTCHAR 0052
ENCODING 82
SWIDTH 720 0
DWIDTH 10 0
BBX 8 11 1 0
BITMAP
FE
C3
C1
C1
C3
FC
C3
C1
C1
C1
C1
ENDCHAR
STARTCHAR 0053
ENCODING 83
SWIDTH 648 0
DWIDTH 9 0
BBX 8 11 1 0
BITMAP
7C
C6
82
80
E0
3C
06
83
83
C6
7C
ENDCHAR
STARTCHAR 0054
ENCODING 84
SWIDTH 576 0
DWIDTH 8 0
BBX 8 11 0 0
BITMAP
FF
08
08
08
08
08
08
08
08
08
08
ENDCHAR
STARTCHAR 0055
ENCODING 85
SWIDTH 720 0
DWIDTH 10 0
BBX 8 11 1 0
BITMAP
81
81
81
81
81
81
81
81
C3
42
3C
ENDCHAR
STARTCHAR 0056
ENCODING 86
SWIDTH 648 0
DWIDTH 9 0
BBX 8 11 1 0
BITMAP
83
82
C2
42
46
64
24
2C
28
18
18
ENDCHAR
STARTCHAR 0057
ENCODING 87
SWIDTH 936 0
DWIDTH 13 0
BBX 13 11 0 0
BITMAP
C218
4318
4510
4510
6510
25B0
28A0
28A0
38A0
1860
1040
ENDCHAR
STARTCHAR 0058
ENCODING 88
SWIDTH 648 0
DWIDTH 9 0
BBX 8 11 1 0
BITMAP
83
C6
64
2C
38
18
38
2C
44
C6
83
ENDCHAR
STARTCHAR 0059
ENCODING 89
SWIDTH 648 0
DWIDTH 9 0
BBX 9 11 0 0
BITMAP
C180
6100
2300
3200
1600
1C00
0800
0800
0800
0800
0800
ENDCHAR
STARTCHAR 005A
ENCODING 90
SWIDTH 576 0
DWIDTH 8 0
BBX 8 11 0 0
BITMAP
7F
03
02
04
0C
18
10
30
60
40
FF
ENDCHAR
STARTCHAR 005B
ENCODING 91
SWIDTH 288 0
DWIDTH 4 0
BBX 2 14 1 -3
BITMAP
C0
80
80
80
80
80
80
80
80
80
80
80
80
C0
ENDCHAR
STARTCHAR 005C
ENCODING 92
SWIDTH 288 0
DWIDTH 4 0
BBX 4 11 0 0
BITMAP
80
80
80
40
40
40
20
20
20
20
10
ENDCHAR
STARTCHAR 005D
ENCODING 93
SWIDTH 288 0
DWIDTH 4 0
BBX 3 14 0 -3
BITMAP
E0
20
20
20
20
20
20
20
20
20
20
20
20
E0
ENDCHAR
STARTCHAR 005E
ENCODING 94
SWIDTH 504 0
DWIDTH 7 0
BBX 5 5 1 5
BITMAP
20
60
50
90
88
ENDCHAR
STARTCHAR 005F
ENCODING 95
SWIDTH 576 0
DWIDTH 8 0
BBX 8 1 0 -3
BITMAP
FF
ENDCHAR
STARTCHAR 0060
ENCODING 96
SWIDTH 360 0
DWIDTH 5 0
BBX 2 2 1 9
BITMAP
80
40
ENDCHAR
STARTCHAR 0061
ENCODING 97
SWIDTH 576 0
DWIDTH 8 0
BBX 6 8 1 0
BITMAP
78
88
0C
3C
CC
8C
8C
F4
ENDCHAR
STARTCHAR 0062
ENCODING 98
SWIDTH 576 0
DWIDTH 8 0
BBX 6 11 1 0
BITMAP
80
80
80
B8
CC
84
84
84
84
CC
F8
ENDCHAR
STARTCHAR 0063
ENCODING 99
SWIDTH 504 0
DWIDTH 7 0
BBX 7 8 0 0
BITMAP
38
44
46
C0
C0
46
44
38
ENDCHAR
STARTCHAR 0064
ENCODING 100
SWIDTH 576 0
DWIDTH 8 0
BBX 7 11 0 0
BITMAP
02
02
02
3A
66
46
C2
C2
42
46
3A
ENDCHAR
STARTCHAR 0065
ENCODING 101
SWIDTH 576 0
DWIDTH 8 0
BBX 6 8 1 0
BITMAP
78
CC
84
FC
80
84
CC
78
ENDCHAR
STARTCHAR 0066
ENCODING 102
SWIDTH 288 0
DWIDTH 4 0
BBX 4 11 0 0
BITMAP
30
40
40
F0
40
40
40
40
40
40
40
ENDCHAR
STARTCHAR 0067
ENCODING 103
SWIDTH 576 0
DWIDTH 8 0
BBX 7 11 0 -3
BITMAP
3A
46
46
46
C6
46
46
3E
06
44
38
ENDCHAR
STARTCHAR 0068
ENCODING 104
SWIDTH 576 0
DWIDTH 8 0
BBX 6 11 1 0
BITMAP
80
80
80
B8
CC
84
84
84
84
84
84
ENDCHAR
STARTCHAR 0069
ENCODING 105
SWIDTH 216 0
DWIDTH 3 0
BBX 1 11 1 0
BITMAP
80
00
00
80
80
80
80
80
80
80
80
ENDCHAR
STARTCHAR 006A
ENCODING 106
SWIDTH 216 0
DWIDTH 3 0
BBX 2 14 0 -3
BITMAP
40
00
00
40
40
40
40
40
40
40
40
40
40
C0
ENDCHAR
STARTCHAR 006B
ENCODING 107
SWIDTH 504 0
DWIDTH 7 0
BBX 6 11 1 0
BITMAP
80
80
80
88
90
A0
E0
90
98
88
8C
ENDCHAR
STARTCHAR 006C
ENCODING 108
SWIDTH 216 0
DWIDTH 3 0
BBX 1 11 1 0
BITMAP
80
80
80
80
80
80
80
80
80
80
80
ENDCHAR
STARTCHAR 006D
ENCODING 109
SWIDTH 864 0
DWIDTH 12 0
BBX 10 8 1 0
BITMAP
FB80
CCC0
88C0
88C0
88C0
88C0
88C0
88C0
ENDCHAR
STARTCHAR 006E
ENCODING 110
SWIDTH 576 0
DWIDTH 8 0
BBX 6 8 1 0
BITMAP
B8
CC
84
84
84
84
84
84
ENDCHAR
STARTCHAR 006F
ENCODING 111
SWIDTH 576 0
DWIDTH 8 0
BBX 6 8 1 0
BITMAP
78
CC
84
84
84
84
CC
78
ENDCHAR
STARTCHAR 0070
ENCODING 112
SWIDTH 576 0
DWIDTH 8 0
BBX 6 11 1 -3
BITMAP
F8
CC
84
84
84
84
CC
F8
80
80
80
ENDCHAR
STARTCHAR 0071
ENCODING 113
SWIDTH 576 0
DWIDTH 8 0
BBX 7 10 0 -3
BITMAP
3A
66
46
C2
C2
46
46
3A
02
02
ENDCHAR
STARTCHAR 0072
ENCODING 114
SWIDTH 360 0
DWIDTH 5 0
BBX 3 8 1 0
BITMAP
A0
C0
80
80
80
80
80
80
ENDCHAR
STARTCHAR 0073
ENCODING 115
SWIDTH 504 0
DWIDTH 7 0
BBX 6 8 0 0
BITMAP
38
44
40
70
1C
C4
44
78
ENDCHAR
STARTCHAR 0074
ENCODING 116
SWIDTH 288 0
DWIDTH 4 0
BBX 4 10 0 0
BITMAP
40
40
F0
40
40
40
40
40
40
70
ENDCHAR
STARTCHAR 0075
ENCODING 117
SWIDTH 576 0
DWIDTH 8 0
BBX 6 8 1 0
BITMAP
84
84
84
84
84
8C
8C
74
ENDCHAR
STARTCHAR 0076
ENCODING 118
SWIDTH 504 0
DWIDTH 7 0
BBX 7 8 0 0
BITMAP
C6
44
44
4C
28
28
30
10
ENDCHAR
STARTCHAR 0077
ENCODING 119
SWIDTH 720 0
DWIDTH 10 0
BBX 10 8 0 0
BITMAP
8CC0
CC80
4C80
5480
5380
3300
3300
3300
ENDCHAR
STARTCHAR 0078
ENCODING 120
SWIDTH 504 0
DWIDTH 7 0
BBX 5 8 1 0
BITMAP
88
D8
50
20
60
50
98
88
ENDCHAR
STARTCHAR 0079
ENCODING 121
SWIDTH 504 0
DWIDTH 7 0
BBX 6 11 0 -3
BITMAP
C4
44
44
68
28
28
30
10
10
20
60
ENDCHAR
STARTCHAR 007A
ENCODING 122
SWIDTH 504 0
DWIDTH 7 0
BBX 6 8 0 0
BITMAP
7C
0C
08
10
30
60
40
FC
ENDCHAR
STARTCHAR 007B
ENCODING 123
SWIDTH 360 0
DWIDTH 5 0
BBX 3 13 1 -2
BITMAP
60
40
40
40
40
C0
80
C0
40
40
40
40
60
ENDCHAR
STARTCHAR 007C
ENCODING 124
SWIDTH 288 0
DWIDTH 4 0
BBX 1 13 1 -2
BITMAP
80
80
80
80
80
80
80
80
80
80
80
80
80
ENDCHAR
STARTCHAR 007D
ENCODING 125
SWIDTH 360 0
DWIDTH 5 0
BBX 4 13 0 -2
BITMAP
C0
60
60
60
20
20
10
20
20
60
60
60
C0
ENDCHAR
STARTCHAR 007E
ENCODING 126
SWIDTH 576 0
DWIDTH 8 0
BBX 6 3 1 3
BITMAP
64
B4
9C
ENDCHAR
STARTCHAR 00A0
ENCODING 160
SWIDTH 288 0
DWIDTH 4 0
BBX 0 0 0 0
BITMAP
ENDCHAR
STARTCHAR 00A1
ENCODING 161
SWIDTH 360 0
DWIDTH 5 0
BBX 1 10 2 -2
BITMAP
80
00
80
80
80
80
80
80
80
80
ENDCHAR
STARTCHAR 00A2
ENCODING 162
SWIDTH 576 0
DWIDTH 8 0
BBX 6 9 1 -1
BITMAP
20
78
A4
A0
A0
A0
A4
78
20
ENDCHAR
STARTCHAR 00A3
ENCODING 163
SWIDTH 576 0
DWIDTH 8 0
BBX 7 11 0 0
BITMAP
3C
66
42
40
40
F8
20
20
20
78
0E
ENDCHAR
STARTCHAR 00A4
ENCODING 164
SWIDTH 576 0
DWIDTH 8 0
BBX 6 5 1 2
BITMAP
FC
C8
88
C8
FC
ENDCHAR
STARTCHAR 00A5
ENCODING 165
SWIDTH 576 0
DWIDTH 8 0
BBX 7 10 0 0
BITMAP
C2
42
24
2C
18
7E
18
7E
18
18
ENDCHAR
STARTCHAR 00A6
ENCODING 166
SWIDTH 288 0
DWIDTH 4 0
BBX 1 13 1 -2
BITMAP
80
80
80
80
80
80
00
80
80
80
80
80
80
ENDCHAR
STARTCHAR 00A7
ENCODING 167
SWIDTH 576 0
DWIDTH 8 0
BBX 6 14 1 -3
BITMAP
78
48
C8
40
F0
98
8C
C4
64
38
18
88
C8
70
ENDCHAR
STARTCHAR 00A8
ENCODING 168
SWIDTH 360 0
DWIDTH 5 0
BBX 4 1 0 9
BITMAP
D0
ENDCHAR
STARTCHAR 00A9
ENCODING 169
SWIDTH 720 0
DWIDTH 10 0
BBX 10 11 0 0
BITMAP
1E00
6180
4EC0
9240
9040
A040
9140
9240
4CC0
6180
1E00
ENDCHAR
STARTCHAR 00AA
ENCODING 170
SWIDTH 360 0
DWIDTH 5 0
BBX 4 7 1 4
BITMAP
E0
20
E0
A0
F0
00
E0
ENDCHAR
STARTCHAR 00AB
ENCODING 171
SWIDTH 576 0
DWIDTH 8 0
BBX 5 4 1 1
BITMAP
48
58
90
48
ENDCHAR
STARTCHAR 00AC
ENCODING 172
SWIDTH 576 0
DWIDTH 8 0
BBX 7 4 1 1
BITMAP
FE
02
02
02
ENDCHAR
STARTCHAR 00AD
ENCODING 173
SWIDTH 360 0
DWIDTH 5 0
BBX 3 1 1 3
BITMAP
E0
ENDCHAR
STARTCHAR 00AE
ENCODING 174
SWIDTH 720 0
DWIDTH 10 0
BBX 10 11 0 0
BITMAP
1E00
6180
5EC0
9140
9140
9E40
9240
9240
51C0
6180
1E00
ENDCHAR
STARTCHAR 00AF
ENCODING 175
SWIDTH 360 0
DWIDTH 5 0
BBX 4 1 0 9
BITMAP
F0
ENDCHAR
STARTCHAR 00B0
ENCODING 176
SWIDTH 432 0
DWIDTH 6 0
BBX 4 5 1 5
BITMAP
60
90
90
90
60
ENDCHAR
STARTCHAR 00B1
ENCODING 177
SWIDTH 576 0
DWIDTH 8 0
BBX 6 9 1 0
BITMAP
10
10
10
FC
10
10
10
00
FC
ENDCHAR
STARTCHAR 00B2
ENCODING 178
SWIDTH 360 0
DWIDTH 5 0
BBX 4 6 0 4
BITMAP
70
90
10
20
C0
F0
ENDCHAR
STARTCHAR 00B3
ENCODING 179
SWIDTH 360 0
DWIDTH 5 0
BBX 4 6 0 4
BITMAP
70
90
30
10
90
70
ENDCHAR
STARTCHAR 00B4
ENCODING 180
SWIDTH 360 0
DWIDTH 5 0
BBX 2 2 2 9
BITMAP
C0
80
ENDCHAR
STARTCHAR 00B5
ENCODING 181
SWIDTH 576 0
DWIDTH 8 0
BBX 7 11 1 -3
BITMAP
84
84
84
84
84
8C
8C
F6
80
80
80
ENDCHAR
STARTCHAR 00B6
ENCODING 182
SWIDTH 504 0
DWIDTH 7 0
BBX 6 12 1 -2
BITMAP
7C
E8
E8
E8
E8
E8
28
28
28
28
28
28
ENDCHAR
STARTCHAR 00B7
ENCODING 183
SWIDTH 288 0
DWIDTH 4 0
BBX 1 1 2 3
BITMAP
80
ENDCHAR
STARTCHAR 00B8
ENCODING 184
SWIDTH 360 0
DWIDTH 5 0
BBX 3 3 1 -3
BITMAP
40
20
E0
ENDCHAR
STARTCHAR 00B9
ENCODING 185
SWIDTH 360 0
DWIDTH 5 0
BBX 2 6 1 4
BITMAP
40
C0
40
40
40
40
ENDCHAR
STARTCHAR 00BA
ENCODING 186
SWIDTH 360 0
DWIDTH 5 0
BBX 3 7 1 4
BITMAP
E0
A0
A0
A0
E0
00
E0
ENDCHAR
STARTCHAR 00BB
ENCODING 187
SWIDTH 576 0
DWIDTH 8 0
BBX 5 4 1 1
BITMAP
90
48
48
D0
ENDCHAR
STARTCHAR 00BC
ENCODING 188
SWIDTH 864 0
DWIDTH 12 0
BBX 10 10 1 0
BITMAP
C100
4200
4400
4400
4880
0980
1280
23C0
2080
4080
ENDCHAR
STARTCHAR 00BD
ENCODING 189
SWIDTH 864 0
DWIDTH 12 0
BBX 11 10 0 0
BITMAP
2080
E100
2200
2200
24E0
2920
0820
10C0
1100
21E0
ENDCHAR
STARTCHAR 00BE
ENCODING 190
SWIDTH 864 0
DWIDTH 12 0
BBX 11 10 0 0
BITMAP
7080
1080
3100
1200
8A40
74C0
0540
09E0
1040
1040
ENDCHAR
STARTCHAR 00BF
ENCODING 191
SWIDTH 576 0
DWIDTH 8 0
BBX 6 11 1 -3
BITMAP
10
00
00
10
10
20
40
C0
C4
44
78
ENDCHAR
STARTCHAR 00C0
ENCODING 192
SWIDTH 648 0
DWIDTH 9 0
BBX 9 14 0 0
BITMAP
1000
0800
0000
0C00
1C00
1400
1600
3200
2200
2300
7F00
4100
4180
C180
ENDCHAR
STARTCHAR 00C1
ENCODING 193
SWIDTH 648 0
DWIDTH 9 0
BBX 9 14 0 0
BITMAP
0400
0800
0000
0C00
1C00
1400
1600
3200
2200
2300
7F00
4100
4180
C180
ENDCHAR
STARTCHAR 00C2
ENCODING 194
SWIDTH 648 0
DWIDTH 9 0
BBX 9 14 0 0
BITMAP
0C00
1400
0000
0C00
1C00
1400
1600
3200
2200
2300
7F00
4100
4180
C180
ENDCHAR
STARTCHAR 00C3
ENCODING 195
SWIDTH 648 0
DWIDTH 9 0
BBX 9 14 0 0
BITMAP
1200
2C00
0000
0C00
1C00
1400
1600
3200
2200
2300
7F00
4100
4180
C180
ENDCHAR
STARTCHAR 00C4
ENCODING 196
SWIDTH 648 0
DWIDTH 9 0
BBX 9 13 0 0
BITMAP
1400
0000
0C00
1C00
1400
1600
3200
2200
2300
7F00
4100
4180
C180
ENDCHAR
STARTCHAR 00C5
ENCODING 197
SWIDTH 648 0
DWIDTH 9 0
BBX 9 14 0 0
BITMAP
0C00
0C00
0000
0C00
1C00
1400
1600
3200
2200
2300
7F00
4100
4180
C180
ENDCHAR
STARTCHAR 00C6
ENCODING 198
SWIDTH 1008 0
DWIDTH 14 0
BBX 13 11 0 0
BITMAP
0FF8
0B00
1B00
1300
1300
33F8
2300
7F00
6300
4300
C3F8
ENDCHAR
STARTCHAR 00C7
ENCODING 199
SWIDTH 720 0
DWIDTH 10 0
BBX 8 14 1 -3
BITMAP
3C
62
C1
80
80
80
80
81
C1
63
3E
10
0C
38
ENDCHAR
STARTCHAR 00C8
ENCODING 200
SWIDTH 648 0
DWIDTH 9 0
BBX 8 14 1 0
BITMAP
30
10
00
FE
C0
C0
C0
C0
FE
C0
C0
C0
C0
FF
ENDCHAR
STARTCHAR 00C9
ENCODING 201
SWIDTH 648 0
DWIDTH 9 0
BBX 8 14 1 0
BITMAP
08
10
00
FE
C0
C0
C0
C0
FE
C0
C0
C0
C0
FF
ENDCHAR
STARTCHAR 00CA
ENCODING 202
SWIDTH 648 0
DWIDTH 9 0
BBX 8 14 1 0
BITMAP
18
28
00
FE
C0
C0
C0
C0
FE
C0
C0
C0
C0
FF
ENDCHAR
STARTCHAR 00CB
ENCODING 203
SWIDTH 648 0
DWIDTH 9 0
BBX 8 13 1 0
BITMAP
2C
00
FE
C0
C0
C0
C0
FE
C0
C0
C0
C0
FF
ENDCHAR
STARTCHAR 00CC
ENCODING 204
SWIDTH 288 0
DWIDTH 4 0
BBX 3 14 0 0
BITMAP
C0
40
00
60
60
60
60
60
60
60
60
60
60
60
ENDCHAR
STARTCHAR 00CD
ENCODING 205
SWIDTH 288 0
DWIDTH 4 0
BBX 2 14 1 0
BITMAP
40
80
00
C0
C0
C0
C0
C0
C0
C0
C0
C0
C0
C0
ENDCHAR
STARTCHAR 00CE
ENCODING 206
SWIDTH 288 0
DWIDTH 4 0
BBX 4 14 0 0
BITMAP
60
90
00
60
60
60
60
60
60
60
60
60
60
60
ENDCHAR
STARTCHAR 00CF
ENCODING 207
SWIDTH 288 0
DWIDTH 4 0
BBX 4 13 0 0
BITMAP
F0
00
60
60
60
60
60
60
60
60
60
60
60
ENDCHAR
STARTCHAR 00D0
ENCODING 208
SWIDTH 720 0
DWIDTH 10 0
BBX 9 11 0 0
BITMAP
7E00
6300
6180
6080
6080
F880
6080
6080
6180
6300
7E00
ENDCHAR
STARTCHAR 00D1
ENCODING 209
SWIDTH 720 0
DWIDTH 10 0
BBX 8 14 1 0
BITMAP
34
2C
00
C1
C1
A1
B1
91
99
89
8D
85
83
83
ENDCHAR
STARTCHAR 00D2
ENCODING 210
SWIDTH 792 0
DWIDTH 11 0
BBX 9 14 1 0
BITMAP
1000
0800
0000
3E00
6300
C180
8080
8080
8080
8080
8080
C180
6300
3E00
ENDCHAR
STARTCHAR 00D3
ENCODING 211
SWIDTH 792 0
DWIDTH 11 0
BBX 9 14 1 0
BITMAP
0400
0800
0000
3E00
6300
C180
8080
8080
8080
8080
8080
C180
6300
3E00
ENDCHAR
STARTCHAR 00D4
ENCODING 212
SWIDTH 792 0
DWIDTH 11 0
BBX 9 14 1 0
BITMAP
0800
1400
0000
3E00
6300
C180
8080
8080
8080
8080
8080
C180
6300
3E00
ENDCHAR
STARTCHAR 00D5
ENCODING 213
SWIDTH 792 0
DWIDTH 11 0
BBX 9 13 1 0
BITMAP
1E00
0000
3E00
6300
C180
8080
8080
8080
8080
8080
C180
6300
3E00
ENDCHAR
STARTCHAR 00D6
ENCODING 214
SWIDTH 792 0
DWIDTH 11 0
BBX 9 13 1 0
BITMAP
1400
0000
3E00
6300
C180
8080
8080
8080
8080
8080
C180
6300
3E00
ENDCHAR
STARTCHAR 00D7
ENCODING 215
SWIDTH 576 0
DWIDTH 8 0
BBX 4 4 2 1
BITMAP
90
60
60
90
ENDCHAR
STARTCHAR 00D8
ENCODING 216
SWIDTH 792 0
DWIDTH 11 0
BBX 10 11 0 0
BITMAP
1F40
3180
61C0
4240
4240
C440
4840
5040
60C0
7180
9F00
ENDCHAR
STARTCHAR 00D9
ENCODING 217
SWIDTH 720 0
DWIDTH 10 0
BBX 8 14 1 0
BITMAP
30
18
00
81
81
81
81
81
81
81
81
C3
62
3C
ENDCHAR
STARTCHAR 00DA
ENCODING 218
SWIDTH 720 0
DWIDTH 10 0
BBX 8 14 1 0
BITMAP
0C
18
00
81
81
81
81
81
81
81
81
C3
62
3C
ENDCHAR
STARTCHAR 00DB
ENCODING 219
SWIDTH 720 0
DWIDTH 10 0
BBX 8 14 1 0
BITMAP
18
34
00
81
81
81
81
81
81
81
81
C3
62
3C
ENDCHAR
STARTCHAR 00DC
ENCODING 220
SWIDTH 720 0
DWIDTH 10 0
BBX 8 13 1 0
BITMAP
3C
00
81
81
81
81
81
81
81
81
C3
62
3C
ENDCHAR
STARTCHAR 00DD
ENCODING 221
SWIDTH 648 0
DWIDTH 9 0
BBX 9 14 0 0
BITMAP
0400
0800
0000
C180
6100
2300
3200
1600
1C00
0800
0800
0800
0800
0800
ENDCHAR
STARTCHAR 00DE
ENCODING 222
SWIDTH 648 0
DWIDTH 9 0
BBX 8 11 1 0
BITMAP
C0
C0
FE
C2
C3
C3
C2
FE
C0
C0
C0
ENDCHAR
STARTCHAR 00DF
ENCODING 223
SWIDTH 576 0
DWIDTH 8 0
BBX 7 11 1 0
BITMAP
78
CC
84
84
98
9C
86
86
86
84
98
ENDCHAR
STARTCHAR 00E0
ENCODING 224
SWIDTH 576 0
DWIDTH 8 0
BBX 6 11 1 0
BITMAP
60
20
00
78
88
0C
3C
CC
8C
8C
F4
ENDCHAR
STARTCHAR 00E1
ENCODING 225
SWIDTH 576 0
DWIDTH 8 0
BBX 6 11 1 0
BITMAP
10
20
00
78
88
0C
3C
CC
8C
8C
F4
ENDCHAR
STARTCHAR 00E2
ENCODING 226
SWIDTH 576 0
DWIDTH 8 0
BBX 6 11 1 0
BITMAP
30
50
00
78
88
0C
3C
CC
8C
8C
F4
ENDCHAR
STARTCHAR 00E3
ENCODING 227
SWIDTH 576 0
DWIDTH 8 0
BBX 6 10 1 0
BITMAP
78
00
78
88
0C
3C
CC
8C
8C
F4
ENDCHAR
STARTCHAR 00E4
ENCODING 228
SWIDTH 576 0
DWIDTH 8 0
BBX 6 10 1 0
BITMAP
58
00
78
88
0C
3C
CC
8C
8C
F4
ENDCHAR
STARTCHAR 00E5
ENCODING 229
SWIDTH 576 0
DWIDTH 8 0
BBX 6 11 1 0
BITMAP
30
30
00
78
88
0C
3C
CC
8C
8C
F4
ENDCHAR
STARTCHAR 00E6
ENCODING 230
SWIDTH 864 0
DWIDTH 12 0
BBX 12 8 0 0
BITMAP
3DC0
4620
0430
3FF0
4400
C630
4E20
79C0
ENDCHAR
STARTCHAR 00E7
ENCODING 231
SWIDTH 504 0
DWIDTH 7 0
BBX 7 11 0 -3
BITMAP
38
44
46
C0
C0
46
44
38
20
18
38
ENDCHAR
STARTCHAR 00E8
ENCODING 232
SWIDTH 576 0
DWIDTH 8 0
BBX 6 11 1 0
BITMAP
60
20
00
78
CC
84
FC
80
84
CC
78
ENDCHAR
STARTCHAR 00E9
ENCODING 233
SWIDTH 576 0
DWIDTH 8 0
BBX 6 11 1 0
BITMAP
10
20
00
78
CC
84
FC
80
84
CC
78
ENDCHAR
STARTCHAR 00EA
ENCODING 234
SWIDTH 576 0
DWIDTH 8 0
BBX 6 11 1 0
BITMAP
30
48
00
78
CC
84
FC
80
84
CC
78
ENDCHAR
STARTCHAR 00EB
ENCODING 235
SWIDTH 576 0
DWIDTH 8 0
BBX 6 10 1 0
BITMAP
78
00
78
CC
84
FC
80
84
CC
78
ENDCHAR
STARTCHAR 00EC
ENCODING 236
SWIDTH 288 0
DWIDTH 4 0
BBX 2 11 0 0
BITMAP
C0
40
00
40
40
40
40
40
40
40
40
ENDCHAR
STARTCHAR 00ED
ENCODING 237
SWIDTH 288 0
DWIDTH 4 0
BBX 2 11 1 0
BITMAP
40
80
00
80
80
80
80
80
80
80
80
ENDCHAR
STARTCHAR 00EE
ENCODING 238
SWIDTH 288 0
DWIDTH 4 0
BBX 4 11 0 0
BITMAP
60
90
00
40
40
40
40
40
40
40
40
ENDCHAR
STARTCHAR 00EF
ENCODING 239
SWIDTH 288 0
DWIDTH 4 0
BBX 4 10 0 0
BITMAP
B0
00
40
40
40
40
40
40
40
40
ENDCHAR
STARTCHAR 00F0
ENCODING 240
SWIDTH 576 0
DWIDTH 8 0
BBX 6 11 1 0
BITMAP
D0
60
10
78
CC
84
84
84
84
CC
78
ENDCHAR
STARTCHAR 00F1
ENCODING 241
SWIDTH 576 0
DWIDTH 8 0
BBX 6 10 1 0
BITMAP
78
00
B8
CC
84
84
84
84
84
84
ENDCHAR
STARTCHAR 00F2
ENCODING 242
SWIDTH 576 0
DWIDTH 8 0
BBX 6 11 1 0
BITMAP
60
20
00
78
CC
84
84
84
84
CC
78
ENDCHAR
STARTCHAR 00F3
ENCODING 243
SWIDTH 576 0
DWIDTH 8 0
BBX 6 11 1 0
BITMAP
10
20
00
78
CC
84
84
84
84
CC
78
ENDCHAR
STARTCHAR 00F4
ENCODING 244
SWIDTH 576 0
DWIDTH 8 0
BBX 6 11 1 0
BITMAP
30
50
00
78
CC
84
84
84
84
CC
78
ENDCHAR
STARTCHAR 00F5
ENCODING 245
SWIDTH 576 0
DWIDTH 8 0
BBX 6 10 1 0
BITMAP
78
00
78
CC
84
84
84
84
CC
78
ENDCHAR
STARTCHAR 00F6
ENCODING 246
SWIDTH 576 0
DWIDTH 8 0
BBX 6 10 1 0
BITMAP
58
00
78
CC
84
84
84
84
CC
78
ENDCHAR
STARTCHAR 00F7
ENCODING 247
SWIDTH 576 0
DWIDTH 8 0
BBX 6 6 1 0
BITMAP
30
00
FC
00
00
30
ENDCHAR
STARTCHAR 00F8
ENCODING 248
SWIDTH 576 0
DWIDTH 8 0
BBX 7 8 0 0
BITMAP
3E
66
46
4A
52
62
66
BC
ENDCHAR
STARTCHAR 00F9
ENCODING 249
SWIDTH 576 0
DWIDTH 8 0
BBX 6 11 1 0
BITMAP
60
20
00
84
84
84
84
84
8C
8C
74
ENDCHAR
STARTCHAR 00FA
ENCODING 250
SWIDTH 576 0
DWIDTH 8 0
BBX 6 11 1 0
BITMAP
10
20
00
84
84
84
84
84
8C
8C
74
ENDCHAR
STARTCHAR 00FB
ENCODING 251
SWIDTH 576 0
DWIDTH 8 0
BBX 6 11 1 0
BITMAP
30
50
00
84
84
84
84
84
8C
8C
74
ENDCHAR
STARTCHAR 00FC
ENCODING 252
SWIDTH 576 0
DWIDTH 8 0
BBX 6 10 1 0
BITMAP
58
00
84
84
84
84
84
8C
8C
74
ENDCHAR
STARTCHAR 00FD
ENCODING 253
SWIDTH 504 0
DWIDTH 7 0
BBX 6 14 0 -3
BITMAP
18
10
00
C4
44
44
68
28
28
30
10
10
20
60
ENDCHAR
STARTCHAR 00FE
ENCODING 254
SWIDTH 576 0
DWIDTH 8 0
BBX 6 13 1 -3
BITMAP
80
80
B8
CC
84
84
84
84
CC
F8
80
80
80
ENDCHAR
STARTCHAR 00FF
ENCODING 255
SWIDTH 504 0
DWIDTH 7 0
BBX 6 13 0 -3
BITMAP
28
00
C4
44
44
68
28
28
30
10
10
20
60
ENDCHAR
STARTCHAR 0100
ENCODING 256
SWIDTH 648 0
DWIDTH 9 0
BBX 9 13 0 0
BITMAP
1E00
0000
0C00
1C00
1400
1600
3200
2200
2300
7F00
4100
4180
C180
ENDCHAR
STARTCHAR 0101
ENCODING 257
SWIDTH 576 0
DWIDTH 8 0
BBX 6 10 1 0
BITMAP
78
00
78
88
0C
3C
CC
8C
8C
F4
ENDCHAR
STARTCHAR 0102
ENCODING 258
SWIDTH 648 0
DWIDTH 9 0
BBX 9 14 0 0
BITMAP
0200
1C00
0000
0C00
1C00
1400
1600
3200
2200
2300
7F00
4100
4180
C180
ENDCHAR
STARTCHAR 0103
ENCODING 259
SWIDTH 576 0
DWIDTH 8 0
BBX 6 11 1 0
BITMAP
48
70
00
78
88
0C
3C
CC
8C
8C
F4
ENDCHAR
STARTCHAR 0104
ENCODING 260
SWIDTH 648 0
DWIDTH 9 0
BBX 10 14 0 -3
BITMAP
0C00
1C00
1400
1600
3200
2200
2300
7F00
4100
4180
C180
0100
0100
01C0
ENDCHAR
STARTCHAR 0105
ENCODING 261
SWIDTH 576 0
DWIDTH 8 0
BBX 7 11 1 -3
BITMAP
78
8C
0C
3C
CC
8C
8C
F4
04
08
06
ENDCHAR
STARTCHAR 0106
ENCODING 262
SWIDTH 720 0
DWIDTH 10 0
BBX 8 14 1 0
BITMAP
0C
08
00
3C
62
C1
80
80
80
80
81
C1
63
3C
ENDCHAR
STARTCHAR 0107
ENCODING 263
SWIDTH 504 0
DWIDTH 7 0
BBX 7 11 0 0
BITMAP
08
10
00
38
44
46
C0
C0
46
44
38
ENDCHAR
STARTCHAR 0108
ENCODING 264
SWIDTH 720 0
DWIDTH 10 0
BBX 8 14 1 0
BITMAP
18
14
00
3C
62
C1
80
80
80
80
81
C1
63
3C
ENDCHAR
STARTCHAR 0109
ENCODING 265
SWIDTH 504 0
DWIDTH 7 0
BBX 7 11 0 0
BITMAP
18
28
00
38
44
46
C0
C0
46
44
38
ENDCHAR
STARTCHAR 010A
ENCODING 266
SWIDTH 720 0
DWIDTH 10 0
BBX 8 13 1 0
BITMAP
08
00
3C
62
C1
80
80
80
80
81
C1
63
3C
ENDCHAR
STARTCHAR 010B
ENCODING 267
SWIDTH 504 0
DWIDTH 7 0
BBX 7 10 0 0
BITMAP
10
00
38
44
46
C0
C0
46
44
38
ENDCHAR
STARTCHAR 010C
ENCODING 268
SWIDTH 720 0
DWIDTH 10 0
BBX 8 14 1 0
BITMAP
24
18
00
3C
62
C1
80
80
80
80
81
C1
63
3C
ENDCHAR
STARTCHAR 010D
ENCODING 269
SWIDTH 504 0
DWIDTH 7 0
BBX 7 11 0 0
BITMAP
28
18
00
38
44
46
C0
C0
46
44
38
ENDCHAR
STARTCHAR 010E
ENCODING 270
SWIDTH 720 0
DWIDTH 10 0
BBX 8 14 1 0
BITMAP
28
18
00
FC
C6
C3
C1
C1
C1
C1
C1
C3
C6
FC
ENDCHAR
STARTCHAR 010F
ENCODING 271
SWIDTH 648 0
DWIDTH 9 0
BBX 9 11 0 0
BITMAP
0280
0280
0280
3A00
6600
4600
C200
C200
4200
4600
3A00
ENDCHAR
STARTCHAR 0110
ENCODING 272
SWIDTH 720 0
DWIDTH 10 0
BBX 9 11 0 0
BITMAP
7E00
6300
6180
6080
6080
F880
6080
6080
6180
6300
7E00
ENDCHAR
STARTCHAR 0111
ENCODING 273
SWIDTH 576 0
DWIDTH 8 0
BBX 8 11 0 0
BITMAP
02
0F
02
3A
66
46
C2
C2
46
66
3A
ENDCHAR
STARTCHAR 0112
ENCODING 274
SWIDTH 648 0
DWIDTH 9 0
BBX 8 13 1 0
BITMAP
3C
00
FE
C0
C0
C0
C0
FE
C0
C0
C0
C0
FF
ENDCHAR
STARTCHAR 0113
ENCODING 275
SWIDTH 576 0
DWIDTH 8 0
BBX 6 10 1 0
BITMAP
78
00
78
CC
84
FC
80
84
CC
78
ENDCHAR
STARTCHAR 0114
ENCODING 276
SWIDTH 648 0
DWIDTH 9 0
BBX 8 14 1 0
BITMAP
24
38
00
FE
C0
C0
C0
C0
FE
C0
C0
C0
C0
FF
ENDCHAR
STARTCHAR 0115
ENCODING 277
SWIDTH 576 0
DWIDTH 8 0
BBX 6 11 1 0
BITMAP
48
70
00
78
CC
84
FC
80
84
CC
78
ENDCHAR
STARTCHAR 0116
ENCODING 278
SWIDTH 648 0
DWIDTH 9 0
BBX 8 13 1 0
BITMAP
18
00
FE
C0
C0
C0
C0
FE
C0
C0
C0
C0
FF
ENDCHAR
STARTCHAR 0117
ENCODING 279
SWIDTH 576 0
DWIDTH 8 0
BBX 6 10 1 0
BITMAP
30
00
78
CC
84
FC
80
84
CC
78
ENDCHAR
STARTCHAR 0118
ENCODING 280
SWIDTH 648 0
DWIDTH 9 0
BBX 8 14 1 -3
BITMAP
FE
C0
C0
C0
C0
FE
C0
C0
C0
C0
FF
02
04
07
ENDCHAR
STARTCHAR 0119
ENCODING 281
SWIDTH 576 0
DWIDTH 8 0
BBX 6 11 1 -3
BITMAP
78
CC
84
FC
80
84
CC
78
10
10
0C
ENDCHAR
STARTCHAR 011A
ENCODING 282
SWIDTH 648 0
DWIDTH 9 0
BBX 8 14 1 0
BITMAP
20
18
00
FE
C0
C0
C0
C0
FE
C0
C0
C0
C0
FF
ENDCHAR
STARTCHAR 011B
ENCODING 283
SWIDTH 576 0
DWIDTH 8 0
BBX 6 11 1 0
BITMAP
48
30
00
78
CC
84
FC
80
84
CC
78
ENDCHAR
STARTCHAR 011C
ENCODING 284
SWIDTH 792 0
DWIDTH 11 0
BBX 9 14 1 0
BITMAP
0800
1400
0000
3E00
6300
C100
8000
8000
8780
8080
8080
C180
6380
3C80
ENDCHAR
STARTCHAR 011D
ENCODING 285
SWIDTH 576 0
DWIDTH 8 0
BBX 7 14 0 -3
BITMAP
18
28
00
3A
46
46
46
C6
46
46
3E
06
44
38
ENDCHAR
STARTCHAR 011E
ENCODING 286
SWIDTH 792 0
DWIDTH 11 0
BBX 9 14 1 0
BITMAP
2200
1C00
0000
3E00
6300
C100
8000
8000
8780
8080
8080
C180
6380
3C80
ENDCHAR
STARTCHAR 011F
ENCODING 287
SWIDTH 576 0
DWIDTH 8 0
BBX 7 14 0 -3
BITMAP
24
38
00
3A
46
46
46
C6
46
46
3E
06
44
38
ENDCHAR
STARTCHAR 0120
ENCODING 288
SWIDTH 792 0
DWIDTH 11 0
BBX 9 13 1 0
BITMAP
0800
0000
3E00
6300
C100
8000
8000
8780
8080
8080
C180
6380
3C80
ENDCHAR
STARTCHAR 0121
ENCODING 289
SWIDTH 576 0
DWIDTH 8 0
BBX 7 13 0 -3
BITMAP
10
00
3A
46
46
46
C6
46
46
3E
06
44
38
ENDCHAR
STARTCHAR 0122
ENCODING 290
SWIDTH 792 0
DWIDTH 11 0
BBX 9 14 1 -4
BITMAP
3E00
6300
C100
8000
8000
8780
8080
8080
C180
6380
3C80
0000
0800
0800
ENDCHAR
STARTCHAR 0123
ENCODING 291
SWIDTH 576 0
DWIDTH 8 0
BBX 7 14 0 -2
BITMAP
10
10
00
3A
46
46
46
C6
46
46
3E
06
44
38
ENDCHAR
STARTCHAR 0124
ENCODING 292
SWIDTH 720 0
DWIDTH 10 0
BBX 8 14 1 0
BITMAP
18
14
00
81
81
81
81
81
FF
81
81
81
81
81
ENDCHAR
STARTCHAR 0125
ENCODING 293
SWIDTH 576 0
DWIDTH 8 0
BBX 7 14 0 0
BITMAP
60
A0
00
40
40
40
5C
66
42
42
42
42
42
42
ENDCHAR
STARTCHAR 0126
ENCODING 294
SWIDTH 720 0
DWIDTH 10 0
BBX 10 11 0 0
BITMAP
4080
4080
FFC0
4080
4080
7F80
4080
4080
4080
4080
4080
ENDCHAR
STARTCHAR 0127
ENCODING 295
SWIDTH 576 0
DWIDTH 8 0
BBX 7 11 0 0
BITMAP
40
F8
40
5C
66
42
42
42
42
42
42
ENDCHAR
STARTCHAR 0128
ENCODING 296
SWIDTH 288 0
DWIDTH 4 0
BBX 4 14 0 0
BITMAP
D0
20
00
60
60
60
60
60
60
60
60
60
60
60
ENDCHAR
STARTCHAR 0129
ENCODING 297
SWIDTH 288 0
DWIDTH 4 0
BBX 4 10 0 0
BITMAP
F0
00
40
40
40
40
40
40
40
40
ENDCHAR
STARTCHAR 012A
ENCODING 298
SWIDTH 288 0
DWIDTH 4 0
BBX 4 13 0 0
BITMAP
F0
00
60
60
60
60
60
60
60
60
60
60
60
ENDCHAR
STARTCHAR 012B
ENCODING 299
SWIDTH 288 0
DWIDTH 4 0
BBX 4 10 0 0
BITMAP
F0
00
40
40
40
40
40
40
40
40
ENDCHAR
STARTCHAR 012C
ENCODING 300
SWIDTH 288 0
DWIDTH 4 0
BBX 4 14 0 0
BITMAP
90
E0
00
60
60
60
60
60
60
60
60
60
60
60
ENDCHAR
STARTCHAR 012D
ENCODING 301
SWIDTH 288 0
DWIDTH 4 0
BBX 4 11 0 0
BITMAP
90
E0
00
40
40
40
40
40
40
40
40
ENDCHAR
STARTCHAR 012E
ENCODING 302
SWIDTH 288 0
DWIDTH 4 0
BBX 2 14 1 -3
BITMAP
C0
C0
C0
C0
C0
C0
C0
C0
C0
C0
C0
80
80
C0
ENDCHAR
STARTCHAR 012F
ENCODING 303
SWIDTH 216 0
DWIDTH 3 0
BBX 3 14 0 -3
BITMAP
40
00
00
40
40
40
40
40
40
40
40
40
80
60
ENDCHAR
STARTCHAR 0130
ENCODING 304
SWIDTH 288 0
DWIDTH 4 0
BBX 2 13 1 0
BITMAP
C0
00
C0
C0
C0
C0
C0
C0
C0
C0
C0
C0
C0
ENDCHAR
STARTCHAR 0131
ENCODING 305
SWIDTH 288 0
DWIDTH 4 0
BBX 1 8 1 0
BITMAP
80
80
80
80
80
80
80
80
ENDCHAR
STARTCHAR 0132
ENCODING 306
SWIDTH 720 0
DWIDTH 10 0
BBX 8 11 1 0
BITMAP
C1
C1
C1
C1
C1
C1
C1
F1
F1
D3
DE
ENDCHAR
STARTCHAR 0133
ENCODING 307
SWIDTH 432 0
DWIDTH 6 0
BBX 4 14 1 -3
BITMAP
90
00
00
90
90
90
90
90
90
90
90
10
10
30
ENDCHAR
STARTCHAR 0134
ENCODING 308
SWIDTH 504 0
DWIDTH 7 0
BBX 7 14 0 0
BITMAP
0C
0A
00
04
04
04
04
04
04
04
C4
C4
CC
78
ENDCHAR
STARTCHAR 0135
ENCODING 309
SWIDTH 216 0
DWIDTH 3 0
BBX 3 14 0 -3
BITMAP
40
A0
00
40
40
40
40
40
40
40
40
40
40
C0
ENDCHAR
STARTCHAR 0136
ENCODING 310
SWIDTH 648 0
DWIDTH 9 0
BBX 8 15 1 -4
BITMAP
83
86
8C
98
B0
F8
C8
8C
86
82
83
00
18
08
10
ENDCHAR
STARTCHAR 0137
ENCODING 311
SWIDTH 504 0
DWIDTH 7 0
BBX 6 15 1 -4
BITMAP
80
80
80
88
90
A0
E0
90
98
88
8C
00
20
20
20
ENDCHAR
STARTCHAR 0138
ENCODING 312
SWIDTH 504 0
DWIDTH 7 0
BBX 5 7 1 0
BITMAP
98
B0
E0
A0
A0
90
88
ENDCHAR
STARTCHAR 0139
ENCODING 313
SWIDTH 576 0
DWIDTH 8 0
BBX 6 14 1 0
BITMAP
40
80
00
80
80
80
80
80
80
80
80
80
80
FC
ENDCHAR
STARTCHAR 013A
ENCODING 314
SWIDTH 216 0
DWIDTH 3 0
BBX 2 14 1 0
BITMAP
40
80
00
80
80
80
80
80
80
80
80
80
80
80
ENDCHAR
STARTCHAR 013B
ENCODING 315
SWIDTH 576 0
DWIDTH 8 0
BBX 6 15 1 -4
BITMAP
80
80
80
80
80
80
80
80
80
80
FC
00
10
10
10
ENDCHAR
STARTCHAR 013C
ENCODING 316
SWIDTH 216 0
DWIDTH 3 0
BBX 1 15 1 -4
BITMAP
80
80
80
80
80
80
80
80
80
80
80
00
80
80
80
ENDCHAR
STARTCHAR 013D
ENCODING 317
SWIDTH 576 0
DWIDTH 8 0
BBX 6 11 1 0
BITMAP
90
90
90
80
80
80
80
80
80
80
FC
ENDCHAR
STARTCHAR 013E
ENCODING 318
SWIDTH 288 0
DWIDTH 4 0
BBX 3 11 1 0
BITMAP
A0
A0
A0
80
80
80
80
80
80
80
80
ENDCHAR
STARTCHAR 013F
ENCODING 319
SWIDTH 576 0
DWIDTH 8 0
BBX 6 11 1 0
BITMAP
80
80
80
80
80
88
80
80
80
80
FC
ENDCHAR
STARTCHAR 0140
ENCODING 320
SWIDTH 360 0
DWIDTH 5 0
BBX 4 11 1 0
BITMAP
80
80
80
80
80
B0
80
80
80
80
80
ENDCHAR
STARTCHAR 0141
ENCODING 321
SWIDTH 576 0
DWIDTH 8 0
BBX 8 11 0 0
BITMAP
40
40
40
48
50
60
C0
40
40
40
7F
ENDCHAR
STARTCHAR 0142
ENCODING 322
SWIDTH 216 0
DWIDTH 3 0
BBX 3 11 0 0
BITMAP
40
40
40
40
60
40
C0
40
40
40
40
ENDCHAR
STARTCHAR 0143
ENCODING 323
SWIDTH 720 0
DWIDTH 10 0
BBX 8 14 1 0
BITMAP
0C
18
00
C1
C1
A1
B1
91
99
89
8D
85
83
83
ENDCHAR
STARTCHAR 0144
ENCODING 324
SWIDTH 576 0
DWIDTH 8 0
BBX 6 11 1 0
BITMAP
10
20
00
B8
CC
84
84
84
84
84
84
ENDCHAR
STARTCHAR 0145
ENCODING 325
SWIDTH 720 0
DWIDTH 10 0
BBX 8 15 1 -4
BITMAP
C1
C1
A1
B1
91
99
89
8D
85
83
83
00
18
08
10
ENDCHAR
STARTCHAR 0146
ENCODING 326
SWIDTH 576 0
DWIDTH 8 0
BBX 6 12 1 -4
BITMAP
B8
CC
84
84
84
84
84
84
00
30
10
20
ENDCHAR
STARTCHAR 0147
ENCODING 327
SWIDTH 720 0
DWIDTH 10 0
BBX 8 14 1 0
BITMAP
24
18
00
C1
C1
A1
B1
91
99
89
8D
85
83
83
ENDCHAR
STARTCHAR 0148
ENCODING 328
SWIDTH 576 0
DWIDTH 8 0
BBX 6 11 1 0
BITMAP
48
30
00
B8
CC
84
84
84
84
84
84
ENDCHAR
STARTCHAR 0149
ENCODING 329
SWIDTH 576 0
DWIDTH 8 0
BBX 7 11 0 0
BITMAP
C0
40
80
3E
32
22
22
22
22
22
22
ENDCHAR
STARTCHAR 014A
ENCODING 330
SWIDTH 720 0
DWIDTH 10 0
BBX 8 15 1 -4
BITMAP
9E
A3
C3
C3
C3
C3
C3
C3
C3
C3
C3
03
03
03
06
ENDCHAR
STARTCHAR 014B
ENCODING 331
SWIDTH 576 0
DWIDTH 8 0
BBX 6 11 1 -3
BITMAP
B8
CC
84
84
84
84
84
84
04
04
18
ENDCHAR
STARTCHAR 014C
ENCODING 332
SWIDTH 792 0
DWIDTH 11 0
BBX 9 13 1 0
BITMAP
3C00
0000
3E00
6300
C180
8080
8080
8080
8080
8080
C180
6300
3E00
ENDCHAR
STARTCHAR 014D
ENCODING 333
SWIDTH 576 0
DWIDTH 8 0
BBX 6 10 1 0
BITMAP
78
00
78
CC
84
84
84
84
CC
78
ENDCHAR
STARTCHAR 014E
ENCODING 334
SWIDTH 792 0
DWIDTH 11 0
BBX 9 14 1 0
BITMAP
2000
1C00
0000
3E00
6300
C180
8080
8080
8080
8080
8080
C180
6300
3E00
ENDCHAR
STARTCHAR 014F
ENCODING 335
SWIDTH 576 0
DWIDTH 8 0
BBX 6 11 1 0
BITMAP
48
70
00
78
CC
84
84
84
84
CC
78
ENDCHAR
STARTCHAR 0150
ENCODING 336
SWIDTH 792 0
DWIDTH 11 0
BBX 9 14 1 0
BITMAP
0B00
1200
0000
3E00
6300
C180
8080
8080
8080
8080
8080
C180
6300
3E00
ENDCHAR
STARTCHAR 0151
ENCODING 337
SWIDTH 576 0
DWIDTH 8 0
BBX 6 11 1 0
BITMAP
2C
48
00
78
CC
84
84
84
84
CC
78
ENDCHAR
STARTCHAR 0152
ENCODING 338
SWIDTH 1008 0
DWIDTH 14 0
BBX 12 11 1 0
BITMAP
3FF0
4700
8300
8300
8300
83F0
8300
8300
8300
4700
3FF0
ENDCHAR
STARTCHAR 0153
ENCODING 339
SWIDTH 936 0
DWIDTH 13 0
BBX 11 8 1 0
BITMAP
7BC0
CE20
8420
87E0
8400
8420
CE60
7BC0
ENDCHAR
STARTCHAR 0154
ENCODING 340
SWIDTH 720 0
DWIDTH 10 0
BBX 8 14 1 0
BITMAP
08
10
00
FE
C3
C1
C1
C3
FC
C3
C1
C1
C1
C1
ENDCHAR
STARTCHAR 0155
ENCODING 341
SWIDTH 360 0
DWIDTH 5 0
BBX 3 11 1 0
BITMAP
20
40
00
A0
C0
80
80
80
80
80
80
ENDCHAR
STARTCHAR 0156
ENCODING 342
SWIDTH 720 0
DWIDTH 10 0
BBX 8 15 1 -4
BITMAP
FE
C3
C1
C1
C3
FC
C3
C1
C1
C1
C1
00
18
08
08
ENDCHAR
STARTCHAR 0157
ENCODING 343
SWIDTH 360 0
DWIDTH 5 0
BBX 3 12 1 -4
BITMAP
A0
C0
80
80
80
80
80
80
00
80
80
80
ENDCHAR
STARTCHAR 0158
ENCODING 344
SWIDTH 720 0
DWIDTH 10 0
BBX 8 14 1 0
BITMAP
24
18
00
FE
C3
C1
C1
C3
FC
C3
C1
C1
C1
C1
ENDCHAR
STARTCHAR 0159
ENCODING 345
SWIDTH 360 0
DWIDTH 5 0
BBX 3 11 1 0
BITMAP
A0
60
00
A0
C0
80
80
80
80
80
80
ENDCHAR
STARTCHAR 015A
ENCODING 346
SWIDTH 648 0
DWIDTH 9 0
BBX 8 14 1 0
BITMAP
08
10
00
7C
C6
82
80
E0
3C
06
83
83
C6
7C
ENDCHAR
STARTCHAR 015B
ENCODING 347
SWIDTH 504 0
DWIDTH 7 0
BBX 6 11 0 0
BITMAP
08
10
00
38
44
40
70
1C
C4
44
78
ENDCHAR
STARTCHAR 015C
ENCODING 348
SWIDTH 648 0
DWIDTH 9 0
BBX 8 14 1 0
BITMAP
10
28
00
7C
C6
82
80
E0
3C
06
83
83
C6
7C
ENDCHAR
STARTCHAR 015D
ENCODING 349
SWIDTH 504 0
DWIDTH 7 0
BBX 6 11 0 0
BITMAP
30
28
00
38
44
40
70
1C
C4
44
78
ENDCHAR
STARTCHAR 015E
ENCODING 350
SWIDTH 648 0
DWIDTH 9 0
BBX 8 14 1 -3
BITMAP
7C
C6
82
80
E0
3C
06
83
83
C2
7C
10
08
38
ENDCHAR
STARTCHAR 015F
ENCODING 351
SWIDTH 504 0
DWIDTH 7 0
BBX 5 11 1 -3
BITMAP
70
88
80
E0
38
08
88
F0
40
30
E0
ENDCHAR
STARTCHAR 0160
ENCODING 352
SWIDTH 648 0
DWIDTH 9 0
BBX 8 14 1 0
BITMAP
20
38
00
7C
C6
82
80
E0
3C
06
83
83
C6
7C
ENDCHAR
STARTCHAR 0161
ENCODING 353
SWIDTH 504 0
DWIDTH 7 0
BBX 6 11 0 0
BITMAP
28
38
00
38
44
40
70
1C
C4
44
78
ENDCHAR
STARTCHAR 0162
ENCODING 354
SWIDTH 576 0
DWIDTH 8 0
BBX 8 14 0 -3
BITMAP
FF
08
08
08
08
08
08
08
08
08
08
08
04
1C
ENDCHAR
STARTCHAR 0163
ENCODING 355
SWIDTH 288 0
DWIDTH 4 0
BBX 4 13 0 -3
BITMAP
40
40
F0
40
40
40
40
40
40
70
60
10
60
ENDCHAR
STARTCHAR 0164
ENCODING 356
SWIDTH 576 0
DWIDTH 8 0
BBX 8 14 0 0
BITMAP
04
18
00
FF
08
08
08
08
08
08
08
08
08
08
ENDCHAR
STARTCHAR 0165
ENCODING 357
SWIDTH 288 0
DWIDTH 4 0
BBX 4 12 0 0
BITMAP
10
10
50
40
F0
40
40
40
40
40
40
70
ENDCHAR
STARTCHAR 0166
ENCODING 358
SWIDTH 576 0
DWIDTH 8 0
BBX 8 11 0 0
BITMAP
FF
08
08
08
7E
08
08
08
08
08
08
ENDCHAR
STARTCHAR 0167
ENCODING 359
SWIDTH 288 0
DWIDTH 4 0
BBX 4 10 0 0
BITMAP
40
40
F0
40
E0
40
40
40
40
70
ENDCHAR
STARTCHAR 0168
ENCODING 360
SWIDTH 720 0
DWIDTH 10 0
BBX 8 14 1 0
BITMAP
34
28
00
81
81
81
81
81
81
81
81
C3
42
3C
ENDCHAR
STARTCHAR 0169
ENCODING 361
SWIDTH 576 0
DWIDTH 8 0
BBX 6 10 1 0
BITMAP
78
00
84
84
84
84
84
8C
8C
74
ENDCHAR
STARTCHAR 016A
ENCODING 362
SWIDTH 720 0
DWIDTH 10 0
BBX 8 13 1 0
BITMAP
3C
00
81
81
81
81
81
81
81
81
C3
42
3C
ENDCHAR
STARTCHAR 016B
ENCODING 363
SWIDTH 576 0
DWIDTH 8 0
BBX 6 10 1 0
BITMAP
78
00
84
84
84
84
84
8C
8C
74
ENDCHAR
STARTCHAR 016C
ENCODING 364
SWIDTH 720 0
DWIDTH 10 0
BBX 8 14 1 0
BITMAP
24
3C
00
81
81
81
81
81
81
81
81
C3
42
3C
ENDCHAR
STARTCHAR 016D
ENCODING 365
SWIDTH 576 0
DWIDTH 8 0
BBX 6 11 1 0
BITMAP
48
70
00
84
84
84
84
84
8C
8C
74
ENDCHAR
STARTCHAR 016E
ENCODING 366
SWIDTH 720 0
DWIDTH 10 0
BBX 8 14 1 0
BITMAP
18
18
00
81
81
81
81
81
81
81
81
C3
42
3C
ENDCHAR
STARTCHAR 016F
ENCODING 367
SWIDTH 576 0
DWIDTH 8 0
BBX 6 11 1 0
BITMAP
30
30
00
84
84
84
84
84
8C
8C
74
ENDCHAR
STARTCHAR 0170
ENCODING 368
SWIDTH 720 0
DWIDTH 10 0
BBX 8 14 1 0
BITMAP
1A
14
00
81
81
81
81
81
81
81
81
C3
42
3C
ENDCHAR
STARTCHAR 0171
ENCODING 369
SWIDTH 576 0
DWIDTH 8 0
BBX 6 11 1 0
BITMAP
2C
68
00
84
84
84
84
84
8C
8C
74
ENDCHAR
STARTCHAR 0172
ENCODING 370
SWIDTH 720 0
DWIDTH 10 0
BBX 8 14 1 -3
BITMAP
81
81
81
81
81
81
81
81
C1
43
3E
04
0C
06
ENDCHAR
STARTCHAR 0173
ENCODING 371
SWIDTH 576 0
DWIDTH 8 0
BBX 6 11 1 -3
BITMAP
84
84
84
84
84
8C
8C
74
08
08
04
ENDCHAR
STARTCHAR 0174
ENCODING 372
SWIDTH 936 0
DWIDTH 13 0
BBX 13 14 0 0
BITMAP
0200
0500
0000
C218
4318
4510
4510
6510
25B0
28A0
28A0
38A0
1860
1040
ENDCHAR
STARTCHAR 0175
ENCODING 373
SWIDTH 720 0
DWIDTH 10 0
BBX 10 11 0 0
BITMAP
0C00
1200
0000
8CC0
CC80
4C80
5480
5380
3300
3300
3300
ENDCHAR
STARTCHAR 0176
ENCODING 374
SWIDTH 648 0
DWIDTH 9 0
BBX 9 14 0 0
BITMAP
0C00
1400
0000
C180
6100
2300
3200
1600
1C00
0800
0800
0800
0800
0800
ENDCHAR
STARTCHAR 0177
ENCODING 375
SWIDTH 504 0
DWIDTH 7 0
BBX 6 14 0 -3
BITMAP
30
28
00
C4
44
44
68
28
28
30
10
10
20
60
ENDCHAR
STARTCHAR 0178
ENCODING 376
SWIDTH 648 0
DWIDTH 9 0
BBX 9 13 0 0
BITMAP
1600
0000
C180
6100
2300
3200
1600
1C00
0800
0800
0800
0800
0800
ENDCHAR
STARTCHAR 0179
ENCODING 377
SWIDTH 576 0
DWIDTH 8 0
BBX 8 14 0 0
BITMAP
04
08
00
7F
03
02
04
0C
18
10
30
60
40
FF
ENDCHAR
STARTCHAR 017A
ENCODING 378
SWIDTH 504 0
DWIDTH 7 0
BBX 6 11 0 0
BITMAP
08
10
00
7C
0C
08
10
30
60
40
FC
ENDCHAR
STARTCHAR 017B
ENCODING 379
SWIDTH 576 0
DWIDTH 8 0
BBX 8 13 0 0
BITMAP
08
00
7F
03
02
04
0C
18
10
30
60
40
FF
ENDCHAR
STARTCHAR 017C
ENCODING 380
SWIDTH 504 0
DWIDTH 7 0
BBX 6 10 0 0
BITMAP
10
00
7C
0C
08
10
30
60
40
FC
ENDCHAR
STARTCHAR 017D
ENCODING 381
SWIDTH 576 0
DWIDTH 8 0
BBX 8 14 0 0
BITMAP
14
18
00
7F
03
02
04
0C
18
10
30
60
40
FF
ENDCHAR
STARTCHAR 017E
ENCODING 382
SWIDTH 504 0
DWIDTH 7 0
BBX 6 11 0 0
BITMAP
28
30
00
7C
0C
08
10
30
60
40
FC
ENDCHAR
STARTCHAR 017F
ENCODING 383
SWIDTH 216 0
DWIDTH 3 0
BBX 3 11 0 0
BITMAP
60
40
40
C0
40
40
40
40
40
40
40
ENDCHAR
STARTCHAR 0192
ENCODING 402
SWIDTH 576 0
DWIDTH 8 0
BBX 7 14 0 -3
BITMAP
06
0C
08
08
3C
18
10
10
10
10
10
30
20
C0
ENDCHAR
STARTCHAR 01FA
ENCODING 506
SWIDTH 648 0
DWIDTH 9 0
BBX 9 16 0 0
BITMAP
0800
1000
0C00
0C00
0000
0C00
1C00
1400
1600
3200
2200
2300
7F00
4100
4180
C180
ENDCHAR
STARTCHAR 01FB
ENCODING 507
SWIDTH 576 0
DWIDTH 8 0
BBX 6 13 1 0
BITMAP
20
40
30
30
00
78
88
0C
3C
CC
8C
8C
F4
ENDCHAR
STARTCHAR 01FC
ENCODING 508
SWIDTH 1008 0
DWIDTH 14 0
BBX 13 14 0 0
BITMAP
00C0
0080
0000
0FF8
0B00
1B00
1300
1300
33F8
2300
7F00
6300
4300
C3F8
ENDCHAR
STARTCHAR 01FD
ENCODING 509
SWIDTH 864 0
DWIDTH 12 0
BBX 12 11 0 0
BITMAP
0300
0200
0000
3DC0
4620
0430
3FF0
4400
C630
4E20
79C0
ENDCHAR
STARTCHAR 01FE
ENCODING 510
SWIDTH 792 0
DWIDTH 11 0
BBX 10 14 0 0
BITMAP
0600
0400
0000
1F40
3180
61C0
4240
4240
C440
4840
5040
60C0
7180
9F00
ENDCHAR
STARTCHAR 01FF
ENCODING 511
SWIDTH 576 0
DWIDTH 8 0
BBX 7 11 0 0
BITMAP
08
10
00
3E
66
46
4A
52
62
66
BC
ENDCHAR
STARTCHAR 0218
ENCODING 536
SWIDTH 648 0
DWIDTH 9 0
BBX 8 15 1 -4
BITMAP
7C
C6
82
80
E0
3C
06
83
83
C6
7C
00
10
10
10
ENDCHAR
STARTCHAR 0219
ENCODING 537
SWIDTH 504 0
DWIDTH 7 0
BBX 6 12 0 -4
BITMAP
38
44
40
70
1C
C4
44
78
00
10
10
10
ENDCHAR
STARTCHAR 021A
ENCODING 538
SWIDTH 576 0
DWIDTH 8 0
BBX 8 15 0 -4
BITMAP
FF
08
08
08
08
08
08
08
08
08
08
00
08
08
08
ENDCHAR
STARTCHAR 021B
ENCODING 539
SWIDTH 288 0
DWIDTH 4 0
BBX 4 13 0 -4
BITMAP
40
40
F0
40
40
40
40
40
40
70
00
20
20
ENDCHAR
STARTCHAR 02C6
ENCODING 710
SWIDTH 360 0
DWIDTH 5 0
BBX 3 2 1 9
BITMAP
C0
A0
ENDCHAR
STARTCHAR 02C7
ENCODING 711
SWIDTH 360 0
DWIDTH 5 0
BBX 3 2 1 9
BITMAP
A0
C0
ENDCHAR
STARTCHAR 02C9
ENCODING 713
SWIDTH 360 0
DWIDTH 5 0
BBX 4 1 0 9
BITMAP
F0
ENDCHAR
STARTCHAR 02D8
ENCODING 728
SWIDTH 360 0
DWIDTH 5 0
BBX 4 2 0 9
BITMAP
90
70
ENDCHAR
STARTCHAR 02D9
ENCODING 729
SWIDTH 360 0
DWIDTH 5 0
BBX 1 1 2 9
BITMAP
80
ENDCHAR
STARTCHAR 02DA
ENCODING 730
SWIDTH 360 0
DWIDTH 5 0
BBX 3 3 1 8
BITMAP
40
A0
C0
ENDCHAR
STARTCHAR 02DB
ENCODING 731
SWIDTH 360 0
DWIDTH 5 0
BBX 3 3 1 -3
BITMAP
80
80
E0
ENDCHAR
STARTCHAR 02DC
ENCODING 732
SWIDTH 360 0
DWIDTH 5 0
BBX 4 1 0 9
BITMAP
F0
ENDCHAR
STARTCHAR 02DD
ENCODING 733
SWIDTH 360 0
DWIDTH 5 0
BBX 4 2 0 9
BITMAP
50
A0
ENDCHAR
STARTCHAR 0384
ENCODING 900
SWIDTH 360 0
DWIDTH 5 0
BBX 1 3 2 8
BITMAP
80
80
80
ENDCHAR
STARTCHAR 0385
ENCODING 901
SWIDTH 360 0
DWIDTH 5 0
BBX 4 3 0 9
BITMAP
20
20
F0
ENDCHAR
STARTCHAR 0386
ENCODING 902
SWIDTH 648 0
DWIDTH 9 0
BBX 9 11 0 0
BITMAP
4C00
5C00
5400
1600
3200
2200
2300
7F00
4100
4180
C180
ENDCHAR
STARTCHAR 0387
ENCODING 903
SWIDTH 288 0
DWIDTH 4 0
BBX 1 1 2 3
BITMAP
80
ENDCHAR
STARTCHAR 0388
ENCODING 904
SWIDTH 792 0
DWIDTH 11 0
BBX 10 11 0 0
BITMAP
FF80
B000
3000
3000
3000
3F80
3000
3000
3000
3000
3FC0
ENDCHAR
STARTCHAR 0389
ENCODING 905
SWIDTH 864 0
DWIDTH 12 0
BBX 10 11 0 0
BITMAP
A040
A040
A040
2040
2040
3FC0
2040
2040
2040
2040
2040
ENDCHAR
STARTCHAR 038A
ENCODING 906
SWIDTH 360 0
DWIDTH 5 0
BBX 4 11 0 0
BITMAP
B0
B0
30
30
30
30
30
30
30
30
30
ENDCHAR
STARTCHAR 038C
ENCODING 908
SWIDTH 792 0
DWIDTH 11 0
BBX 10 11 0 0
BITMAP
9F00
B180
60C0
4040
4040
C040
4040
4040
60C0
3180
1F00
ENDCHAR
STARTCHAR 038E
ENCODING 910
SWIDTH 864 0
DWIDTH 12 0
BBX 11 11 0 0
BITMAP
F060
D040
18C0
0C80
0500
0700
0200
0200
0200
0200
0200
ENDCHAR
STARTCHAR 038F
ENCODING 911
SWIDTH 720 0
DWIDTH 10 0
BBX 10 11 0 0
BITMAP
9E00
B180
E080
40C0
40C0
4040
40C0
4080
2080
1100
F3C0
ENDCHAR
STARTCHAR 0390
ENCODING 912
SWIDTH 216 0
DWIDTH 3 0
BBX 3 12 0 0
BITMAP
40
40
E0
00
40
40
40
40
40
40
40
40
ENDCHAR
STARTCHAR 0391
ENCODING 913
SWIDTH 648 0
DWIDTH 9 0
BBX 9 11 0 0
BITMAP
0C00
1C00
1400
1600
3200
2200
2300
7F00
4100
4180
C180
ENDCHAR
STARTCHAR 0392
ENCODING 914
SWIDTH 648 0
DWIDTH 9 0
BBX 8 11 1 0
BITMAP
FC
86
82
82
86
FC
82
83
83
82
FC
ENDCHAR
STARTCHAR 0393
ENCODING 915
SWIDTH 576 0
DWIDTH 8 0
BBX 7 11 1 0
BITMAP
FE
80
80
80
80
80
80
80
80
80
80
ENDCHAR
STARTCHAR 0394
ENCODING 916
SWIDTH 648 0
DWIDTH 9 0
BBX 9 11 0 0
BITMAP
0800
1C00
1400
1600
3200
2200
6300
6100
4100
C180
FF80
ENDCHAR
STARTCHAR 0395
ENCODING 917
SWIDTH 648 0
DWIDTH 9 0
BBX 8 11 1 0
BITMAP
FE
C0
C0
C0
C0
FE
C0
C0
C0
C0
FF
ENDCHAR
STARTCHAR 0396
ENCODING 918
SWIDTH 576 0
DWIDTH 8 0
BBX 8 11 0 0
BITMAP
7F
03
02
04
0C
18
10
30
60
40
FF
ENDCHAR
STARTCHAR 0397
ENCODING 919
SWIDTH 720 0
DWIDTH 10 0
BBX 8 11 1 0
BITMAP
81
81
81
81
81
FF
81
81
81
81
81
ENDCHAR
STARTCHAR 0398
ENCODING 920
SWIDTH 792 0
DWIDTH 11 0
BBX 9 11 1 0
BITMAP
3E00
6300
C180
8080
8080
BC80
8080
8080
C180
6300
3E00
ENDCHAR
STARTCHAR 0399
ENCODING 921
SWIDTH 288 0
DWIDTH 4 0
BBX 2 11 1 0
BITMAP
C0
C0
C0
C0
C0
C0
C0
C0
C0
C0
C0
ENDCHAR
STARTCHAR 039A
ENCODING 922
SWIDTH 648 0
DWIDTH 9 0
BBX 8 11 1 0
BITMAP
83
86
8C
98
B0
F8
C8
8C
86
82
83
ENDCHAR
STARTCHAR 039B
ENCODING 923
SWIDTH 648 0
DWIDTH 9 0
BBX 9 11 0 0
BITMAP
0C00
1C00
1400
1600
3200
2200
2300
6300
4100
4180
C180
ENDCHAR
STARTCHAR 039C
ENCODING 924
SWIDTH 864 0
DWIDTH 12 0
BBX 10 11 1 0
BITMAP
C0C0
C1C0
E1C0
A1C0
A3C0
B2C0
92C0
96C0
94C0
8CC0
8CC0
ENDCHAR
STARTCHAR 039D
ENCODING 925
SWIDTH 720 0
DWIDTH 10 0
BBX 8 11 1 0
BITMAP
C1
C1
A1
B1
91
99
89
8D
85
83
83
ENDCHAR
STARTCHAR 039E
ENCODING 926
SWIDTH 648 0
DWIDTH 9 0
BBX 7 11 1 0
BITMAP
FE
00
00
00
00
FE
00
00
00
00
FE
ENDCHAR
STARTCHAR 039F
ENCODING 927
SWIDTH 792 0
DWIDTH 11 0
BBX 9 11 1 0
BITMAP
3E00
6300
C180
8080
8080
8080
8080
8080
C180
6300
3E00
ENDCHAR
STARTCHAR 03A0
ENCODING 928
SWIDTH 720 0
DWIDTH 10 0
BBX 8 11 1 0
BITMAP
FF
81
81
81
81
81
81
81
81
81
81
ENDCHAR
STARTCHAR 03A1
ENCODING 929
SWIDTH 648 0
DWIDTH 9 0
BBX 8 11 1 0
BITMAP
FC
C2
C3
C3
C2
FE
C0
C0
C0
C0
C0
ENDCHAR
STARTCHAR 03A3
ENCODING 931
SWIDTH 648 0
DWIDTH 9 0
BBX 7 11 1 0
BITMAP
FE
C0
60
20
10
18
10
20
40
C0
FE
ENDCHAR
STARTCHAR 03A4
ENCODING 932
SWIDTH 576 0
DWIDTH 8 0
BBX 8 11 0 0
BITMAP
FF
08
08
08
08
08
08
08
08
08
08
ENDCHAR
STARTCHAR 03A5
ENCODING 933
SWIDTH 648 0
DWIDTH 9 0
BBX 9 11 0 0
BITMAP
C180
6100
2300
3200
1600
1C00
0800
0800
0800
0800
0800
ENDCHAR
STARTCHAR 03A6
ENCODING 934
SWIDTH 792 0
DWIDTH 11 0
BBX 9 11 1 0
BITMAP
0800
1C00
7F00
C980
8880
8880
8880
C980
7F00
1C00
0800
ENDCHAR
STARTCHAR 03A7
ENCODING 935
SWIDTH 648 0
DWIDTH 9 0
BBX 8 11 1 0
BITMAP
83
C6
64
2C
38
18
38
2C
44
C6
83
ENDCHAR
STARTCHAR 03A8
ENCODING 936
SWIDTH 864 0
DWIDTH 12 0
BBX 10 11 1 0
BITMAP
88C0
88C0
88C0
88C0
88C0
88C0
C880
6980
3E00
0800
0800
ENDCHAR
STARTCHAR 03A9
ENCODING 937
SWIDTH 720 0
DWIDTH 10 0
BBX 10 11 0 0
BITMAP
1E00
3180
6080
40C0
40C0
40C0
40C0
4080
2080
1100
F3C0
ENDCHAR
STARTCHAR 03AA
ENCODING 938
SWIDTH 288 0
DWIDTH 4 0
BBX 4 13 0 0
BITMAP
F0
00
60
60
60
60
60
60
60
60
60
60
60
ENDCHAR
STARTCHAR 03AB
ENCODING 939
SWIDTH 648 0
DWIDTH 9 0
BBX 9 13 0 0
BITMAP
1400
0000
C180
6100
2300
3200
1600
1C00
0800
0800
0800
0800
0800
ENDCHAR
STARTCHAR 03AC
ENCODING 940
SWIDTH 576 0
DWIDTH 8 0
BBX 8 11 0 0
BITMAP
10
10
00
39
4F
C6
82
86
C6
4D
39
ENDCHAR
STARTCHAR 03AD
ENCODING 941
SWIDTH 432 0
DWIDTH 6 0
BBX 6 11 0 0
BITMAP
10
10
00
78
4C
40
70
40
84
CC
78
ENDCHAR
STARTCHAR 03AE
ENCODING 942
SWIDTH 576 0
DWIDTH 8 0
BBX 6 15 1 -3
BITMAP
10
10
10
00
B8
CC
84
84
84
84
84
84
04
04
04
ENDCHAR
STARTCHAR 03AF
ENCODING 943
SWIDTH 216 0
DWIDTH 3 0
BBX 1 12 1 0
BITMAP
80
80
80
00
80
80
80
80
80
80
80
80
ENDCHAR
STARTCHAR 03B0
ENCODING 944
SWIDTH 576 0
DWIDTH 8 0
BBX 6 12 1 0
BITMAP
20
20
58
00
84
84
84
84
84
8C
8C
78
ENDCHAR
STARTCHAR 03B1
ENCODING 945
SWIDTH 576 0
DWIDTH 8 0
BBX 8 8 0 0
BITMAP
39
4F
46
C2
C6
46
4D
39
ENDCHAR
STARTCHAR 03B2
ENCODING 946
SWIDTH 576 0
DWIDTH 8 0
BBX 6 14 1 -3
BITMAP
78
C8
8C
8C
98
8C
84
84
84
CC
F8
80
80
80
ENDCHAR
STARTCHAR 03B3
ENCODING 947
SWIDTH 504 0
DWIDTH 7 0
BBX 7 10 0 -2
BITMAP
C6
44
44
28
28
38
10
10
10
10
ENDCHAR
STARTCHAR 03B4
ENCODING 948
SWIDTH 576 0
DWIDTH 8 0
BBX 6 11 1 0
BITMAP
F8
60
30
78
8C
84
84
84
84
CC
78
ENDCHAR
STARTCHAR 03B5
ENCODING 949
SWIDTH 432 0
DWIDTH 6 0
BBX 6 8 0 0
BITMAP
78
4C
40
70
40
84
CC
78
ENDCHAR
STARTCHAR 03B6
ENCODING 950
SWIDTH 432 0
DWIDTH 6 0
BBX 5 13 1 -2
BITMAP
F8
10
20
40
80
80
80
80
80
F8
08
08
08
ENDCHAR
STARTCHAR 03B7
ENCODING 951
SWIDTH 576 0
DWIDTH 8 0
BBX 6 11 1 -3
BITMAP
B8
CC
84
84
84
84
84
84
04
04
04
ENDCHAR
STARTCHAR 03B8
ENCODING 952
SWIDTH 576 0
DWIDTH 8 0
BBX 6 11 1 0
BITMAP
78
C8
84
84
84
FC
84
84
84
C8
78
ENDCHAR
STARTCHAR 03B9
ENCODING 953
SWIDTH 216 0
DWIDTH 3 0
BBX 1 8 1 0
BITMAP
80
80
80
80
80
80
80
80
ENDCHAR
STARTCHAR 03BA
ENCODING 954
SWIDTH 504 0
DWIDTH 7 0
BBX 6 8 1 0
BITMAP
88
90
A0
E0
90
98
88
8C
ENDCHAR
STARTCHAR 03BB
ENCODING 955
SWIDTH 504 0
DWIDTH 7 0
BBX 6 11 0 0
BITMAP
20
20
10
10
30
28
28
68
44
44
C4
ENDCHAR
STARTCHAR 03BC
ENCODING 956
SWIDTH 576 0
DWIDTH 8 0
BBX 6 11 1 -3
BITMAP
84
84
84
84
84
84
CC
F4
80
80
80
ENDCHAR
STARTCHAR 03BD
ENCODING 957
SWIDTH 504 0
DWIDTH 7 0
BBX 7 8 0 0
BITMAP
C6
44
44
6C
28
28
38
10
ENDCHAR
STARTCHAR 03BE
ENCODING 958
SWIDTH 432 0
DWIDTH 6 0
BBX 6 14 0 -3
BITMAP
7C
20
40
40
60
38
40
C0
C0
60
3C
04
04
04
ENDCHAR
STARTCHAR 03BF
ENCODING 959
SWIDTH 576 0
DWIDTH 8 0
BBX 6 8 1 0
BITMAP
78
CC
84
84
84
84
CC
78
ENDCHAR
STARTCHAR 03C0
ENCODING 960
SWIDTH 720 0
DWIDTH 10 0
BBX 8 8 1 0
BITMAP
FF
46
46
46
46
46
46
46
ENDCHAR
STARTCHAR 03C1
ENCODING 961
SWIDTH 576 0
DWIDTH 8 0
BBX 6 11 1 -3
BITMAP
78
CC
84
84
84
84
CC
B8
80
80
80
ENDCHAR
STARTCHAR 03C2
ENCODING 962
SWIDTH 504 0
DWIDTH 7 0
BBX 7 11 0 -3
BITMAP
3C
44
46
C0
C0
40
30
0C
04
04
04
ENDCHAR
STARTCHAR 03C3
ENCODING 963
SWIDTH 648 0
DWIDTH 9 0
BBX 7 8 1 0
BITMAP
7E
CC
84
84
84
84
CC
78
ENDCHAR
STARTCHAR 03C4
ENCODING 964
SWIDTH 360 0
DWIDTH 5 0
BBX 6 8 0 0
BITMAP
FC
20
20
20
20
20
20
20
ENDCHAR
STARTCHAR 03C5
ENCODING 965
SWIDTH 576 0
DWIDTH 8 0
BBX 6 8 1 0
BITMAP
84
84
84
84
84
8C
8C
78
ENDCHAR
STARTCHAR 03C6
ENCODING 966
SWIDTH 648 0
DWIDTH 9 0
BBX 8 11 0 -3
BITMAP
2E
6B
49
C9
C9
49
6B
3C
08
08
08
ENDCHAR
STARTCHAR 03C7
ENCODING 967
SWIDTH 504 0
DWIDTH 7 0
BBX 5 10 1 -2
BITMAP
88
C8
50
70
20
30
50
58
C8
88
ENDCHAR
STARTCHAR 03C8
ENCODING 968
SWIDTH 720 0
DWIDTH 10 0
BBX 8 11 1 -3
BITMAP
99
99
99
99
99
99
5B
7E
18
18
18
ENDCHAR
STARTCHAR 03C9
ENCODING 969
SWIDTH 792 0
DWIDTH 11 0
BBX 9 8 1 0
BITMAP
6300
4100
C900
8980
8980
C900
4900
7700
ENDCHAR
STARTCHAR 03CA
ENCODING 970
SWIDTH 216 0
DWIDTH 3 0
BBX 3 10 0 0
BITMAP
A0
00
40
40
40
40
40
40
40
40
ENDCHAR
STARTCHAR 03CB
ENCODING 971
SWIDTH 576 0
DWIDTH 8 0
BBX 6 10 1 0
BITMAP
58
00
84
84
84
84
84
8C
8C
78
ENDCHAR
STARTCHAR 03CC
ENCODING 972
SWIDTH 576 0
DWIDTH 8 0
BBX 6 11 1 0
BITMAP
20
20
00
78
CC
84
84
84
84
CC
78
ENDCHAR
STARTCHAR 03CD
ENCODING 973
SWIDTH 576 0
DWIDTH 8 0
BBX 6 12 1 0
BITMAP
20
20
20
00
84
84
84
84
84
8C
8C
78
ENDCHAR
STARTCHAR 03CE
ENCODING 974
SWIDTH 792 0
DWIDTH 11 0
BBX 9 12 1 0
BITMAP
0800
0800
0800
0000
6300
4100
C900
8980
8980
C900
4900
7700
ENDCHAR
STARTCHAR 03D1
ENCODING 977
SWIDTH 576 0
DWIDTH 8 0
BBX 7 11 0 0
BITMAP
38
64
44
42
22
3E
02
C2
46
44
38
ENDCHAR
STARTCHAR 03D5
ENCODING 981
SWIDTH 576 0
DWIDTH 8 0
BBX 8 12 0 -3
BITMAP
10
10
7E
52
93
93
92
52
7C
10
10
10
ENDCHAR
STARTCHAR 03D6
ENCODING 982
SWIDTH 792 0
DWIDTH 11 0
BBX 9 8 1 0
BITMAP
FC00
4300
C100
8980
8980
8980
5900
7600
ENDCHAR
STARTCHAR 0400
ENCODING 1024
SWIDTH 648 0
DWIDTH 9 0
BBX 8 14 1 0
BITMAP
30
18
00
FE
C0
C0
C0
C0
FE
C0
C0
C0
C0
FF
ENDCHAR
STARTCHAR 0401
ENCODING 1025
SWIDTH 648 0
DWIDTH 9 0
BBX 7 13 1 0
BITMAP
2C
00
FE
80
80
80
80
FE
80
80
80
80
FE
ENDCHAR
STARTCHAR 0402
ENCODING 1026
SWIDTH 864 0
DWIDTH 12 0
BBX 11 11 0 0
BITMAP
FE00
0800
0800
0800
0FC0
0860
0860
0860
0860
0860
09C0
ENDCHAR
STARTCHAR 0403
ENCODING 1027
SWIDTH 576 0
DWIDTH 8 0
BBX 6 14 1 0
BITMAP
10
20
00
FC
80
80
80
80
80
80
80
80
80
80
ENDCHAR
STARTCHAR 0404
ENCODING 1028
SWIDTH 720 0
DWIDTH 10 0
BBX 10 11 0 0
BITMAP
1E00
3180
4080
C000
C000
FC00
C000
C0C0
4080
2180
1E00
ENDCHAR
STARTCHAR 0405
ENCODING 1029
SWIDTH 648 0
DWIDTH 9 0
BBX 8 11 1 0
BITMAP
7C
C6
82
80
E0
3C
06
83
83
C6
7C
ENDCHAR
STARTCHAR 0406
ENCODING 1030
SWIDTH 288 0
DWIDTH 4 0
BBX 2 11 1 0
BITMAP
C0
C0
C0
C0
C0
C0
C0
C0
C0
C0
C0
ENDCHAR
STARTCHAR 0407
ENCODING 1031
SWIDTH 288 0
DWIDTH 4 0
BBX 4 13 0 0
BITMAP
F0
00
60
60
60
60
60
60
60
60
60
60
60
ENDCHAR
STARTCHAR 0408
ENCODING 1032
SWIDTH 504 0
DWIDTH 7 0
BBX 6 11 0 0
BITMAP
04
04
04
04
04
04
04
C4
C4
CC
78
ENDCHAR
STARTCHAR 0409
ENCODING 1033
SWIDTH 1080 0
DWIDTH 15 0
BBX 14 11 0 0
BITMAP
3F00
2100
2100
2100
2100
21F8
210C
2104
2104
610C
C1F8
ENDCHAR
STARTCHAR 040A
ENCODING 1034
SWIDTH 1008 0
DWIDTH 14 0
BBX 13 11 1 0
BITMAP
8400
8400
8400
8400
8400
FFF0
8410
8418
8418
8410
87F0
ENDCHAR
STARTCHAR 040B
ENCODING 1035
SWIDTH 864 0
DWIDTH 12 0
BBX 10 11 0 0
BITMAP
FF00
1800
1800
1800
1FC0
1840
1840
1840
1840
1840
1840
ENDCHAR
STARTCHAR 040C
ENCODING 1036
SWIDTH 576 0
DWIDTH 8 0
BBX 6 14 1 0
BITMAP
10
20
00
8C
88
98
90
B0
E0
B0
90
88
8C
84
ENDCHAR
STARTCHAR 040D
ENCODING 1037
SWIDTH 720 0
DWIDTH 10 0
BBX 8 14 1 0
BITMAP
10
08
00
81
83
83
85
8D
99
B1
A1
C1
C1
81
ENDCHAR
STARTCHAR 040E
ENCODING 1038
SWIDTH 648 0
DWIDTH 9 0
BBX 9 14 0 0
BITMAP
2000
1C00
0000
C180
4100
6300
2200
3200
1600
1400
1C00
0800
0800
3000
ENDCHAR
STARTCHAR 040F
ENCODING 1039
SWIDTH 720 0
DWIDTH 10 0
BBX 8 13 1 -2
BITMAP
81
81
81
81
81
81
81
81
81
81
FF
18
18
ENDCHAR
STARTCHAR 0410
ENCODING 1040
SWIDTH 648 0
DWIDTH 9 0
BBX 9 11 0 0
BITMAP
0C00
1C00
1400
1600
3600
2200
2300
7F00
4100
4180
C180
ENDCHAR
STARTCHAR 0411
ENCODING 1041
SWIDTH 648 0
DWIDTH 9 0
BBX 8 11 1 0
BITMAP
FE
80
80
80
80
FE
82
83
83
82
FC
ENDCHAR
STARTCHAR 0412
ENCODING 1042
SWIDTH 648 0
DWIDTH 9 0
BBX 8 11 1 0
BITMAP
FC
86
82
82
86
FC
82
83
83
82
FE
ENDCHAR
STARTCHAR 0413
ENCODING 1043
SWIDTH 576 0
DWIDTH 8 0
BBX 6 11 1 0
BITMAP
FC
80
80
80
80
80
80
80
80
80
80
ENDCHAR
STARTCHAR 0414
ENCODING 1044
SWIDTH 648 0
DWIDTH 9 0
BBX 9 13 0 -2
BITMAP
1F00
1100
1100
1100
1100
1100
1100
3100
2100
6100
FF80
8080
8080
ENDCHAR
STARTCHAR 0415
ENCODING 1045
SWIDTH 648 0
DWIDTH 9 0
BBX 7 11 1 0
BITMAP
FE
80
80
80
80
FE
80
80
80
80
FE
ENDCHAR
STARTCHAR 0416
ENCODING 1046
SWIDTH 936 0
DWIDTH 13 0
BBX 13 11 0 0
BITMAP
4210
6230
2220
3260
1240
1FC0
1240
2260
6220
4210
C218
ENDCHAR
STARTCHAR 0417
ENCODING 1047
SWIDTH 576 0
DWIDTH 8 0
BBX 7 11 1 0
BITMAP
78
CC
84
04
0C
18
04
86
84
C4
78
ENDCHAR
STARTCHAR 0418
ENCODING 1048
SWIDTH 720 0
DWIDTH 10 0
BBX 8 11 1 0
BITMAP
81
83
83
85
8D
99
B1
A1
C1
C1
81
ENDCHAR
STARTCHAR 0419
ENCODING 1049
SWIDTH 720 0
DWIDTH 10 0
BBX 8 14 1 0
BITMAP
24
38
00
81
83
83
85
8D
99
B1
A1
C1
C1
81
ENDCHAR
STARTCHAR 041A
ENCODING 1050
SWIDTH 576 0
DWIDTH 8 0
BBX 6 11 1 0
BITMAP
8C
88
98
90
B0
E0
B0
90
88
8C
84
ENDCHAR
STARTCHAR 041B
ENCODING 1051
SWIDTH 648 0
DWIDTH 9 0
BBX 8 11 0 0
BITMAP
3F
21
21
21
21
21
21
21
61
41
C1
ENDCHAR
STARTCHAR 041C
ENCODING 1052
SWIDTH 864 0
DWIDTH 12 0
BBX 10 11 1 0
BITMAP
C0C0
C1C0
E1C0
A1C0
A2C0
B2C0
92C0
96C0
94C0
8CC0
8CC0
ENDCHAR
STARTCHAR 041D
ENCODING 1053
SWIDTH 720 0
DWIDTH 10 0
BBX 8 11 1 0
BITMAP
81
81
81
81
81
FF
81
81
81
81
81
ENDCHAR
STARTCHAR 041E
ENCODING 1054
SWIDTH 792 0
DWIDTH 11 0
BBX 9 11 1 0
BITMAP
3E00
6300
C180
8080
8080
8080
8080
8080
C180
6300
3E00
ENDCHAR
STARTCHAR 041F
ENCODING 1055
SWIDTH 720 0
DWIDTH 10 0
BBX 8 11 1 0
BITMAP
FF
81
81
81
81
81
81
81
81
81
81
ENDCHAR
STARTCHAR 0420
ENCODING 1056
SWIDTH 648 0
DWIDTH 9 0
BBX 8 11 1 0
BITMAP
FC
C2
C3
C3
C2
FE
C0
C0
C0
C0
C0
ENDCHAR
STARTCHAR 0421
ENCODING 1057
SWIDTH 720 0
DWIDTH 10 0
BBX 8 11 1 0
BITMAP
3C
63
C1
81
80
80
80
81
C1
63
3C
ENDCHAR
STARTCHAR 0422
ENCODING 1058
SWIDTH 576 0
DWIDTH 8 0
BBX 8 11 0 0
BITMAP
FF
08
08
08
08
08
08
08
08
08
08
ENDCHAR
STARTCHAR 0423
ENCODING 1059
SWIDTH 648 0
DWIDTH 9 0
BBX 9 11 0 0
BITMAP
C180
4100
6300
2200
3200
1600
1400
1C00
0800
0800
3000
ENDCHAR
STARTCHAR 0424
ENCODING 1060
SWIDTH 792 0
DWIDTH 11 0
BBX 10 11 0 0
BITMAP
0400
0E00
3F80
44C0
C440
C440
C440
44C0
3F80
1E00
0400
ENDCHAR
STARTCHAR 0425
ENCODING 1061
SWIDTH 648 0
DWIDTH 9 0
BBX 8 11 1 0
BITMAP
82
C6
64
2C
38
10
38
6C
44
C6
83
ENDCHAR
STARTCHAR 0426
ENCODING 1062
SWIDTH 720 0
DWIDTH 10 0
BBX 9 13 1 -2
BITMAP
8100
8100
8100
8100
8100
8100
8100
8100
8100
8100
FF80
0180
0180
ENDCHAR
STARTCHAR 0427
ENCODING 1063
SWIDTH 648 0
DWIDTH 9 0
BBX 7 11 1 0
BITMAP
82
82
82
82
82
82
7E
02
02
02
02
ENDCHAR
STARTCHAR 0428
ENCODING 1064
SWIDTH 936 0
DWIDTH 13 0
BBX 11 11 1 0
BITMAP
8420
8420
8420
8420
8420
8420
8420
8420
8420
8420
FFE0
ENDCHAR
STARTCHAR 0429
ENCODING 1065
SWIDTH 936 0
DWIDTH 13 0
BBX 12 13 1 -2
BITMAP
8420
8420
8420
8420
8420
8420
8420
8420
8420
8420
FFF0
0010
0010
ENDCHAR
STARTCHAR 042A
ENCODING 1066
SWIDTH 792 0
DWIDTH 11 0
BBX 11 11 0 0
BITMAP
F800
1800
1800
1800
1800
1FC0
1840
1860
1860
1840
1F80
ENDCHAR
STARTCHAR 042B
ENCODING 1067
SWIDTH 864 0
DWIDTH 12 0
BBX 10 11 1 0
BITMAP
8040
8040
8040
8040
8040
FE40
8240
8340
8340
8240
FE40
ENDCHAR
STARTCHAR 042C
ENCODING 1068
SWIDTH 648 0
DWIDTH 9 0
BBX 8 11 1 0
BITMAP
80
80
80
80
80
FE
82
83
83
82
FC
ENDCHAR
STARTCHAR 042D
ENCODING 1069
SWIDTH 720 0
DWIDTH 10 0
BBX 10 11 0 0
BITMAP
1E00
6300
4080
00C0
00C0
0FC0
00C0
C0C0
4080
6100
1E00
ENDCHAR
STARTCHAR 042E
ENCODING 1070
SWIDTH 1008 0
DWIDTH 14 0
BBX 12 11 1 0
BITMAP
83C0
8660
8830
8810
9810
F810
9810
8810
8830
8660
83C0
ENDCHAR
STARTCHAR 042F
ENCODING 1071
SWIDTH 720 0
DWIDTH 10 0
BBX 8 11 1 0
BITMAP
7F
C3
83
83
C3
3F
43
C3
C3
C3
83
ENDCHAR
STARTCHAR 0430
ENCODING 1072
SWIDTH 576 0
DWIDTH 8 0
BBX 6 8 1 0
BITMAP
78
88
0C
3C
CC
8C
8C
F4
ENDCHAR
STARTCHAR 0431
ENCODING 1073
SWIDTH 576 0
DWIDTH 8 0
BBX 6 11 1 0
BITMAP
08
38
C0
F8
CC
84
84
84
84
CC
78
ENDCHAR
STARTCHAR 0432
ENCODING 1074
SWIDTH 504 0
DWIDTH 7 0
BBX 6 8 1 0
BITMAP
F8
8C
8C
F8
8C
84
84
F8
ENDCHAR
STARTCHAR 0433
ENCODING 1075
SWIDTH 360 0
DWIDTH 5 0
BBX 4 8 1 0
BITMAP
F0
80
80
80
80
80
80
80
ENDCHAR
STARTCHAR 0434
ENCODING 1076
SWIDTH 576 0
DWIDTH 8 0
BBX 8 9 0 -1
BITMAP
3E
22
22
22
22
22
42
FF
83
ENDCHAR
STARTCHAR 0435
ENCODING 1077
SWIDTH 576 0
DWIDTH 8 0
BBX 6 8 1 0
BITMAP
78
CC
84
FC
80
84
CC
78
ENDCHAR
STARTCHAR 0436
ENCODING 1078
SWIDTH 648 0
DWIDTH 9 0
BBX 9 8 0 0
BITMAP
4980
4900
2B00
3E00
2B00
4900
4980
8880
ENDCHAR
STARTCHAR 0437
ENCODING 1079
SWIDTH 432 0
DWIDTH 6 0
BBX 5 8 1 0
BITMAP
70
98
10
30
18
88
98
F0
ENDCHAR
STARTCHAR 0438
ENCODING 1080
SWIDTH 576 0
DWIDTH 8 0
BBX 6 8 1 0
BITMAP
8C
8C
9C
9C
AC
CC
CC
8C
ENDCHAR
STARTCHAR 0439
ENCODING 1081
SWIDTH 576 0
DWIDTH 8 0
BBX 6 11 1 0
BITMAP
48
70
00
8C
8C
9C
9C
AC
CC
CC
8C
ENDCHAR
STARTCHAR 043A
ENCODING 1082
SWIDTH 432 0
DWIDTH 6 0
BBX 5 8 1 0
BITMAP
98
90
B0
E0
B0
90
98
88
ENDCHAR
STARTCHAR 043B
ENCODING 1083
SWIDTH 576 0
DWIDTH 8 0
BBX 7 8 0 0
BITMAP
3E
22
22
22
22
62
42
C2
ENDCHAR
STARTCHAR 043C
ENCODING 1084
SWIDTH 720 0
DWIDTH 10 0
BBX 8 8 1 0
BITMAP
C3
C3
C5
A5
A5
A9
99
99
ENDCHAR
STARTCHAR 043D
ENCODING 1085
SWIDTH 576 0
DWIDTH 8 0
BBX 6 8 1 0
BITMAP
8C
8C
8C
FC
8C
8C
8C
8C
ENDCHAR
STARTCHAR 043E
ENCODING 1086
SWIDTH 576 0
DWIDTH 8 0
BBX 6 8 1 0
BITMAP
78
CC
84
84
84
84
CC
78
ENDCHAR
STARTCHAR 043F
ENCODING 1087
SWIDTH 576 0
DWIDTH 8 0
BBX 6 8 1 0
BITMAP
FC
8C
8C
8C
8C
8C
8C
8C
ENDCHAR
STARTCHAR 0440
ENCODING 1088
SWIDTH 576 0
DWIDTH 8 0
BBX 6 11 1 -3
BITMAP
B8
CC
84
84
84
84
CC
B8
80
80
80
ENDCHAR
STARTCHAR 0441
ENCODING 1089
SWIDTH 504 0
DWIDTH 7 0
BBX 7 8 0 0
BITMAP
38
44
46
C0
C0
46
44
38
ENDCHAR
STARTCHAR 0442
ENCODING 1090
SWIDTH 432 0
DWIDTH 6 0
BBX 6 8 0 0
BITMAP
FC
10
10
10
10
10
10
10
ENDCHAR
STARTCHAR 0443
ENCODING 1091
SWIDTH 504 0
DWIDTH 7 0
BBX 6 11 0 -3
BITMAP
C4
44
44
68
28
28
30
10
10
20
60
ENDCHAR
STARTCHAR 0444
ENCODING 1092
SWIDTH 792 0
DWIDTH 11 0
BBX 9 12 1 -3
BITMAP
0800
0800
7F00
C880
8880
8880
8880
4980
7F00
0800
0800
0800
ENDCHAR
STARTCHAR 0445
ENCODING 1093
SWIDTH 504 0
DWIDTH 7 0
BBX 5 8 1 0
BITMAP
88
D8
50
20
60
50
D8
88
ENDCHAR
STARTCHAR 0446
ENCODING 1094
SWIDTH 576 0
DWIDTH 8 0
BBX 6 10 1 -2
BITMAP
8C
8C
8C
8C
8C
8C
8C
FC
04
04
ENDCHAR
STARTCHAR 0447
ENCODING 1095
SWIDTH 504 0
DWIDTH 7 0
BBX 5 8 1 0
BITMAP
88
88
88
88
F8
08
08
08
ENDCHAR
STARTCHAR 0448
ENCODING 1096
SWIDTH 792 0
DWIDTH 11 0
BBX 9 8 1 0
BITMAP
8880
8880
8880
8880
8880
8880
8880
FF80
ENDCHAR
STARTCHAR 0449
ENCODING 1097
SWIDTH 792 0
DWIDTH 11 0
BBX 10 10 1 -2
BITMAP
8880
8880
8880
8880
8880
8880
8880
FFC0
0040
0040
ENDCHAR
STARTCHAR 044A
ENCODING 1098
SWIDTH 648 0
DWIDTH 9 0
BBX 8 8 0 0
BITMAP
F0
10
10
1F
11
11
11
1F
ENDCHAR
STARTCHAR 044B
ENCODING 1099
SWIDTH 720 0
DWIDTH 10 0
BBX 8 8 1 0
BITMAP
81
81
81
F9
8D
85
8D
F9
ENDCHAR
STARTCHAR 044C
ENCODING 1100
SWIDTH 504 0
DWIDTH 7 0
BBX 6 8 1 0
BITMAP
80
80
80
F8
8C
84
8C
F8
ENDCHAR
STARTCHAR 044D
ENCODING 1101
SWIDTH 504 0
DWIDTH 7 0
BBX 7 8 0 0
BITMAP
38
44
06
1E
02
C6
44
38
ENDCHAR
STARTCHAR 044E
ENCODING 1102
SWIDTH 720 0
DWIDTH 10 0
BBX 9 8 1 0
BITMAP
8F00
9980
9080
F080
9080
9080
9900
8F00
ENDCHAR
STARTCHAR 044F
ENCODING 1103
SWIDTH 576 0
DWIDTH 8 0
BBX 5 8 1 0
BITMAP
F8
88
88
88
78
88
88
88
ENDCHAR
STARTCHAR 0450
ENCODING 1104
SWIDTH 576 0
DWIDTH 8 0
BBX 6 11 1 0
BITMAP
60
20
00
78
CC
84
FC
80
84
CC
78
ENDCHAR
STARTCHAR 0451
ENCODING 1105
SWIDTH 576 0
DWIDTH 8 0
BBX 6 10 1 0
BITMAP
58
00
78
CC
84
FC
80
84
CC
78
ENDCHAR
STARTCHAR 0452
ENCODING 1106
SWIDTH 576 0
DWIDTH 8 0
BBX 7 13 0 -2
BITMAP
40
F0
40
5C
66
42
42
42
42
42
42
06
1C
ENDCHAR
STARTCHAR 0453
ENCODING 1107
SWIDTH 360 0
DWIDTH 5 0
BBX 4 11 1 0
BITMAP
20
40
00
F0
80
80
80
80
80
80
80
ENDCHAR
STARTCHAR 0454
ENCODING 1108
SWIDTH 504 0
DWIDTH 7 0
BBX 7 8 0 0
BITMAP
38
44
C0
F0
C0
46
44
38
ENDCHAR
STARTCHAR 0455
ENCODING 1109
SWIDTH 504 0
DWIDTH 7 0
BBX 6 8 0 0
BITMAP
38
44
40
70
1C
C4
44
78
ENDCHAR
STARTCHAR 0456
ENCODING 1110
SWIDTH 216 0
DWIDTH 3 0
BBX 1 11 1 0
BITMAP
80
00
00
80
80
80
80
80
80
80
80
ENDCHAR
STARTCHAR 0457
ENCODING 1111
SWIDTH 288 0
DWIDTH 4 0
BBX 4 10 0 0
BITMAP
F0
00
60
60
60
60
60
60
60
60
ENDCHAR
STARTCHAR 0458
ENCODING 1112
SWIDTH 216 0
DWIDTH 3 0
BBX 2 13 0 -2
BITMAP
40
00
00
40
40
40
40
40
40
40
40
40
C0
ENDCHAR
STARTCHAR 0459
ENCODING 1113
SWIDTH 936 0
DWIDTH 13 0
BBX 12 8 0 0
BITMAP
3E00
2200
2200
23E0
2230
6210
4230
C3E0
ENDCHAR
STARTCHAR 045A
ENCODING 1114
SWIDTH 792 0
DWIDTH 11 0
BBX 10 8 1 0
BITMAP
8800
8800
8800
FF80
8840
8840
8840
8F80
ENDCHAR
STARTCHAR 045B
ENCODING 1115
SWIDTH 576 0
DWIDTH 8 0
BBX 7 11 0 0
BITMAP
40
F0
40
5C
66
42
42
42
42
42
42
ENDCHAR
STARTCHAR 045C
ENCODING 1116
SWIDTH 432 0
DWIDTH 6 0
BBX 5 11 1 0
BITMAP
20
40
00
98
90
B0
E0
B0
90
98
88
ENDCHAR
STARTCHAR 045D
ENCODING 1117
SWIDTH 576 0
DWIDTH 8 0
BBX 6 11 1 0
BITMAP
60
20
00
8C
8C
9C
9C
AC
CC
CC
8C
ENDCHAR
STARTCHAR 045E
ENCODING 1118
SWIDTH 504 0
DWIDTH 7 0
BBX 6 14 0 -3
BITMAP
48
38
00
C4
44
44
68
28
28
30
10
10
20
60
ENDCHAR
STARTCHAR 045F
ENCODING 1119
SWIDTH 576 0
DWIDTH 8 0
BBX 6 10 1 -2
BITMAP
8C
8C
8C
8C
8C
8C
8C
FC
20
20
ENDCHAR
STARTCHAR 0462
ENCODING 1122
SWIDTH 792 0
DWIDTH 11 0
BBX 10 11 0 0
BITMAP
1000
FE00
1000
1000
1000
1F80
10C0
1040
1040
10C0
1F80
ENDCHAR
STARTCHAR 0463
ENCODING 1123
SWIDTH 648 0
DWIDTH 9 0
BBX 7 10 1 0
BITMAP
40
40
E0
40
40
7C
44
46
44
7C
ENDCHAR
STARTCHAR 0472
ENCODING 1138
SWIDTH 792 0
DWIDTH 11 0
BBX 9 11 1 0
BITMAP
3E00
6300
C180
8080
8080
F880
8F80
8080
C180
6300
3E00
ENDCHAR
STARTCHAR 0473
ENCODING 1139
SWIDTH 576 0
DWIDTH 8 0
BBX 6 8 1 0
BITMAP
78
CC
84
E4
9C
84
CC
78
ENDCHAR
STARTCHAR 0474
ENCODING 1140
SWIDTH 792 0
DWIDTH 11 0
BBX 9 11 1 0
BITMAP
C180
4100
4300
6200
2200
2600
3600
1400
1400
1C00
0800
ENDCHAR
STARTCHAR 0475
ENCODING 1141
SWIDTH 648 0
DWIDTH 9 0
BBX 7 8 1 0
BITMAP
C6
4C
48
68
28
38
30
30
ENDCHAR
STARTCHAR 0490
ENCODING 1168
SWIDTH 504 0
DWIDTH 7 0
BBX 7 13 1 0
BITMAP
02
04
FC
80
80
80
80
80
80
80
80
80
80
ENDCHAR
STARTCHAR 0491
ENCODING 1169
SWIDTH 432 0
DWIDTH 6 0
BBX 6 10 1 0
BITMAP
04
08
F8
80
80
80
80
80
80
80
ENDCHAR
STARTCHAR 0492
ENCODING 1170
SWIDTH 504 0
DWIDTH 7 0
BBX 7 11 0 0
BITMAP
7E
40
40
40
40
FC
40
40
40
40
40
ENDCHAR
STARTCHAR 0493
ENCODING 1171
SWIDTH 360 0
DWIDTH 5 0
BBX 5 8 0 0
BITMAP
78
40
40
F0
40
40
40
40
ENDCHAR
STARTCHAR 0496
ENCODING 1174
SWIDTH 1008 0
DWIDTH 14 0
BBX 14 13 0 -2
BITMAP
4218
6210
2230
3220
1260
1FC0
1260
3220
2210
4218
C20C
0004
0004
ENDCHAR
STARTCHAR 0497
ENCODING 1175
SWIDTH 792 0
DWIDTH 11 0
BBX 11 10 0 -2
BITMAP
4440
64C0
2480
3F80
2480
64C0
4440
C460
0020
0020
ENDCHAR
STARTCHAR 0498
ENCODING 1176
SWIDTH 576 0
DWIDTH 8 0
BBX 7 14 1 -3
BITMAP
78
4C
C4
04
0C
18
04
06
86
C4
78
20
18
70
ENDCHAR
STARTCHAR 0499
ENCODING 1177
SWIDTH 432 0
DWIDTH 6 0
BBX 5 11 1 -3
BITMAP
70
98
10
30
18
88
98
F0
60
10
E0
ENDCHAR
STARTCHAR 049A
ENCODING 1178
SWIDTH 648 0
DWIDTH 9 0
BBX 8 13 1 -2
BITMAP
84
8C
88
98
90
F0
90
98
88
84
87
03
03
ENDCHAR
STARTCHAR 049B
ENCODING 1179
SWIDTH 504 0
DWIDTH 7 0
BBX 6 10 1 -2
BITMAP
88
98
90
F0
90
98
88
8C
04
04
ENDCHAR
STARTCHAR 049C
ENCODING 1180
SWIDTH 648 0
DWIDTH 9 0
BBX 7 11 1 0
BITMAP
86
84
AC
A8
B8
F0
B8
A8
A4
86
82
ENDCHAR
STARTCHAR 049D
ENCODING 1181
SWIDTH 504 0
DWIDTH 7 0
BBX 6 8 1 0
BITMAP
88
B8
B0
F0
B0
B8
88
8C
ENDCHAR
STARTCHAR 04A0
ENCODING 1184
SWIDTH 576 0
DWIDTH 8 0
BBX 10 11 -3 0
BITMAP
F8C0
0880
0980
0900
0B00
0E00
0B00
0900
0880
08C0
0840
ENDCHAR
STARTCHAR 04A1
ENCODING 1185
SWIDTH 432 0
DWIDTH 6 0
BBX 8 8 -2 0
BITMAP
F3
32
36
3C
36
32
33
31
ENDCHAR
STARTCHAR 04A2
ENCODING 1186
SWIDTH 720 0
DWIDTH 10 0
BBX 9 13 1 -2
BITMAP
8100
8100
8100
8100
8100
FF00
8100
8100
8100
8100
8180
0180
0180
ENDCHAR
STARTCHAR 04A3
ENCODING 1187
SWIDTH 576 0
DWIDTH 8 0
BBX 6 10 1 -2
BITMAP
8C
8C
8C
FC
8C
8C
8C
8C
04
04
ENDCHAR
STARTCHAR 04AA
ENCODING 1194
SWIDTH 720 0
DWIDTH 10 0
BBX 8 14 1 -3
BITMAP
3C
62
C1
80
80
80
80
81
C1
63
3E
10
0C
38
ENDCHAR
STARTCHAR 04AB
ENCODING 1195
SWIDTH 504 0
DWIDTH 7 0
BBX 7 11 0 -3
BITMAP
38
44
46
C0
C0
46
44
3C
10
08
38
ENDCHAR
STARTCHAR 04AE
ENCODING 1198
SWIDTH 648 0
DWIDTH 9 0
BBX 9 11 0 0
BITMAP
C180
6100
2300
3200
1600
1C00
0800
0800
0800
0800
0800
ENDCHAR
STARTCHAR 04AF
ENCODING 1199
SWIDTH 504 0
DWIDTH 7 0
BBX 6 11 0 -3
BITMAP
C4
44
44
6C
28
28
38
10
10
10
10
ENDCHAR
STARTCHAR 04B0
ENCODING 1200
SWIDTH 648 0
DWIDTH 9 0
BBX 9 11 0 0
BITMAP
C180
6100
2300
3200
1600
1C00
0C00
0800
3E00
0800
0800
ENDCHAR
STARTCHAR 04B1
ENCODING 1201
SWIDTH 504 0
DWIDTH 7 0
BBX 6 11 0 -3
BITMAP
C4
44
44
6C
28
28
38
10
7C
10
10
ENDCHAR
STARTCHAR 04B2
ENCODING 1202
SWIDTH 720 0
DWIDTH 10 0
BBX 9 13 1 -2
BITMAP
8200
C600
6400
2C00
3800
1000
3800
6C00
4400
C600
8380
0180
0180
ENDCHAR
STARTCHAR 04B3
ENCODING 1203
SWIDTH 504 0
DWIDTH 7 0
BBX 6 10 1 -2
BITMAP
88
D8
50
20
60
50
98
8C
04
04
ENDCHAR
STARTCHAR 04B6
ENCODING 1206
SWIDTH 720 0
DWIDTH 10 0
BBX 8 13 1 -2
BITMAP
83
83
83
83
83
C3
7F
03
03
03
03
01
01
ENDCHAR
STARTCHAR 04B7
ENCODING 1207
SWIDTH 504 0
DWIDTH 7 0
BBX 6 10 1 -2
BITMAP
88
88
88
88
F8
08
08
0C
0C
0C
ENDCHAR
STARTCHAR 04B8
ENCODING 1208
SWIDTH 720 0
DWIDTH 10 0
BBX 8 11 1 0
BITMAP
83
83
83
93
93
D3
7F
13
13
03
03
ENDCHAR
STARTCHAR 04B9
ENCODING 1209
SWIDTH 504 0
DWIDTH 7 0
BBX 5 8 1 0
BITMAP
88
88
A8
A8
F8
28
28
08
ENDCHAR
STARTCHAR 04BA
ENCODING 1210
SWIDTH 720 0
DWIDTH 10 0
BBX 8 11 1 0
BITMAP
80
80
80
80
FE
82
83
83
83
83
83
ENDCHAR
STARTCHAR 04BB
ENCODING 1211
SWIDTH 576 0
DWIDTH 8 0
BBX 6 11 1 0
BITMAP
80
80
80
B8
CC
84
84
84
84
84
84
ENDCHAR
STARTCHAR 04C0
ENCODING 1216
SWIDTH 288 0
DWIDTH 4 0
BBX 2 11 1 0
BITMAP
C0
C0
C0
C0
C0
C0
C0
C0
C0
C0
C0
ENDCHAR
STARTCHAR 04CB
ENCODING 1227
SWIDTH 648 0
DWIDTH 9 0
BBX 7 13 1 -2
BITMAP
82
82
82
82
82
82
7E
02
02
02
06
06
06
ENDCHAR
STARTCHAR 04CC
ENCODING 1228
SWIDTH 504 0
DWIDTH 7 0
BBX 5 10 1 -2
BITMAP
88
88
88
88
F8
08
08
18
10
10
ENDCHAR
STARTCHAR 04CF
ENCODING 1231
SWIDTH 288 0
DWIDTH 4 0
BBX 2 11 1 0
BITMAP
C0
C0
C0
C0
C0
C0
C0
C0
C0
C0
C0
ENDCHAR
STARTCHAR 04D8
ENCODING 1240
SWIDTH 792 0
DWIDTH 11 0
BBX 9 11 1 0
BITMAP
3E00
6300
C180
0080
0080
FF80
8080
8080
C180
6300
3E00
ENDCHAR
STARTCHAR 04D9
ENCODING 1241
SWIDTH 576 0
DWIDTH 8 0
BBX 6 8 1 0
BITMAP
78
CC
84
04
FC
84
8C
78
ENDCHAR
STARTCHAR 04E2
ENCODING 1250
SWIDTH 720 0
DWIDTH 10 0
BBX 8 13 1 0
BITMAP
3C
00
81
83
83
85
8D
99
B1
A1
C1
C1
81
ENDCHAR
STARTCHAR 04E3
ENCODING 1251
SWIDTH 576 0
DWIDTH 8 0
BBX 6 10 1 0
BITMAP
78
00
8C
8C
9C
9C
AC
CC
CC
8C
ENDCHAR
STARTCHAR 04E8
ENCODING 1256
SWIDTH 792 0
DWIDTH 11 0
BBX 9 11 1 0
BITMAP
3E00
6300
C180
8080
8080
FF80
8080
8080
C180
6300
3E00
ENDCHAR
STARTCHAR 04E9
ENCODING 1257
SWIDTH 576 0
DWIDTH 8 0
BBX 6 8 1 0
BITMAP
78
CC
84
FC
84
84
CC
78
ENDCHAR
STARTCHAR 04EE
ENCODING 1262
SWIDTH 648 0
DWIDTH 9 0
BBX 9 13 0 0
BITMAP
1C00
0000
C180
4100
6300
2200
3200
1600
1400
1C00
0800
0800
3000
ENDCHAR
STARTCHAR 04EF
ENCODING 1263
SWIDTH 504 0
DWIDTH 7 0
BBX 6 13 0 -3
BITMAP
78
00
C4
44
44
68
28
28
30
10
10
20
60
ENDCHAR
STARTCHAR 1E80
ENCODING 7808
SWIDTH 936 0
DWIDTH 13 0
BBX 13 14 0 0
BITMAP
0600
0200
0000
C218
4318
4510
4510
6510
25B0
28A0
28A0
38A0
1860
1040
ENDCHAR
STARTCHAR 1E81
ENCODING 7809
SWIDTH 720 0
DWIDTH 10 0
BBX 10 11 0 0
BITMAP
1800
0C00
0000
8CC0
CC80
4C80
5480
5380
3300
3300
3300
ENDCHAR
STARTCHAR 1E82
ENCODING 7810
SWIDTH 936 0
DWIDTH 13 0
BBX 13 14 0 0
BITMAP
0180
0100
0000
C218
4318
4510
4510
6510
25B0
28A0
28A0
38A0
1860
1040
ENDCHAR
STARTCHAR 1E83
ENCODING 7811
SWIDTH 720 0
DWIDTH 10 0
BBX 10 11 0 0
BITMAP
0400
0800
0000
8CC0
CC80
4C80
5480
5380
3300
3300
3300
ENDCHAR
STARTCHAR 1E84
ENCODING 7812
SWIDTH 936 0
DWIDTH 13 0
BBX 13 13 0 0
BITMAP
0500
0000
C218
4318
4510
4510
6510
25B0
28A0
28A0
38A0
1860
1040
ENDCHAR
STARTCHAR 1E85
ENCODING 7813
SWIDTH 720 0
DWIDTH 10 0
BBX 10 10 0 0
BITMAP
1600
0000
8CC0
CC80
4C80
5480
5380
3300
3300
3300
ENDCHAR
STARTCHAR 1EF2
ENCODING 7922
SWIDTH 648 0
DWIDTH 9 0
BBX 9 14 0 0
BITMAP
1000
0800
0000
C180
6100
2300
3200
1600
1C00
0800
0800
0800
0800
0800
ENDCHAR
STARTCHAR 1EF3
ENCODING 7923
SWIDTH 504 0
DWIDTH 7 0
BBX 6 14 0 -3
BITMAP
20
10
00
C4
44
44
68
28
28
30
10
10
20
60
ENDCHAR
STARTCHAR 2002
ENCODING 8194
SWIDTH 504 0
DWIDTH 7 0
BBX 0 0 0 0
BITMAP
ENDCHAR
STARTCHAR 2013
ENCODING 8211
SWIDTH 576 0
DWIDTH 8 0
BBX 8 1 0 3
BITMAP
FF
ENDCHAR
STARTCHAR 2014
ENCODING 8212
SWIDTH 1008 0
DWIDTH 14 0
BBX 14 1 0 3
BITMAP
FFFC
ENDCHAR
STARTCHAR 2015
ENCODING 8213
SWIDTH 1008 0
DWIDTH 14 0
BBX 14 1 0 3
BITMAP
FFFC
ENDCHAR
STARTCHAR 2017
ENCODING 8215
SWIDTH 576 0
DWIDTH 8 0
BBX 8 2 0 -3
BITMAP
FF
FF
ENDCHAR
STARTCHAR 2018
ENCODING 8216
SWIDTH 216 0
DWIDTH 3 0
BBX 1 3 1 7
BITMAP
80
80
80
ENDCHAR
STARTCHAR 2019
ENCODING 8217
SWIDTH 216 0
DWIDTH 3 0
BBX 1 3 1 8
BITMAP
80
80
80
ENDCHAR
STARTCHAR 201A
ENCODING 8218
SWIDTH 216 0
DWIDTH 3 0
BBX 1 3 1 -2
BITMAP
80
80
80
ENDCHAR
STARTCHAR 201B
ENCODING 8219
SWIDTH 216 0
DWIDTH 3 0
BBX 1 3 1 8
BITMAP
80
80
80
ENDCHAR
STARTCHAR 201C
ENCODING 8220
SWIDTH 360 0
DWIDTH 5 0
BBX 3 3 1 7
BITMAP
A0
A0
A0
ENDCHAR
STARTCHAR 201D
ENCODING 8221
SWIDTH 360 0
DWIDTH 5 0
BBX 3 3 1 7
BITMAP
A0
A0
A0
ENDCHAR
STARTCHAR 201E
ENCODING 8222
SWIDTH 360 0
DWIDTH 5 0
BBX 3 3 1 -2
BITMAP
A0
A0
20
ENDCHAR
STARTCHAR 2020
ENCODING 8224
SWIDTH 576 0
DWIDTH 8 0
BBX 6 12 1 -2
BITMAP
20
20
20
FC
20
20
20
20
20
20
20
20
ENDCHAR
STARTCHAR 2021
ENCODING 8225
SWIDTH 576 0
DWIDTH 8 0
BBX 6 13 1 -3
BITMAP
20
20
20
FC
20
20
20
20
20
FC
20
20
20
ENDCHAR
STARTCHAR 2022
ENCODING 8226
SWIDTH 360 0
DWIDTH 5 0
BBX 3 3 1 3
BITMAP
E0
E0
E0
ENDCHAR
STARTCHAR 2026
ENCODING 8230
SWIDTH 1008 0
DWIDTH 14 0
BBX 10 1 2 0
BITMAP
8C40
ENDCHAR
STARTCHAR 2030
ENCODING 8240
SWIDTH 1008 0
DWIDTH 14 0
BBX 14 11 0 0
BITMAP
7200
9200
9400
7400
0800
0800
1000
1738
24A4
24A4
0738
ENDCHAR
STARTCHAR 2032
ENCODING 8242
SWIDTH 216 0
DWIDTH 3 0
BBX 2 3 0 6
BITMAP
40
40
80
ENDCHAR
STARTCHAR 2033
ENCODING 8243
SWIDTH 360 0
DWIDTH 5 0
BBX 3 3 1 6
BITMAP
A0
A0
A0
ENDCHAR
STARTCHAR 2039
ENCODING 8249
SWIDTH 360 0
DWIDTH 5 0
BBX 2 4 1 1
BITMAP
40
C0
80
40
ENDCHAR
STARTCHAR 203A
ENCODING 8250
SWIDTH 360 0
DWIDTH 5 0
BBX 2 4 1 1
BITMAP
80
40
40
80
ENDCHAR
STARTCHAR 203C
ENCODING 8252
SWIDTH 504 0
DWIDTH 7 0
BBX 4 11 2 0
BITMAP
90
90
90
90
90
90
90
90
10
00
90
ENDCHAR
STARTCHAR 203E
ENCODING 8254
SWIDTH 360 0
DWIDTH 5 0
BBX 8 1 -2 12
BITMAP
FF
ENDCHAR
STARTCHAR 2044
ENCODING 8260
SWIDTH 288 0
DWIDTH 4 0
BBX 7 10 -2 0
BITMAP
02
04
04
08
08
10
20
20
40
80
ENDCHAR
STARTCHAR 2070
ENCODING 8304
SWIDTH 360 0
DWIDTH 5 0
BBX 4 6 0 4
BITMAP
70
90
90
90
90
70
ENDCHAR
STARTCHAR 2074
ENCODING 8308
SWIDTH 360 0
DWIDTH 5 0
BBX 4 6 0 4
BITMAP
10
30
50
90
F0
10
ENDCHAR
STARTCHAR 2075
ENCODING 8309
SWIDTH 360 0
DWIDTH 5 0
BBX 4 6 0 4
BITMAP
70
80
F0
10
90
70
ENDCHAR
STARTCHAR 2076
ENCODING 8310
SWIDTH 360 0
DWIDTH 5 0
BBX 4 6 0 4
BITMAP
70
90
A0
D0
90
70
ENDCHAR
STARTCHAR 2077
ENCODING 8311
SWIDTH 360 0
DWIDTH 5 0
BBX 4 6 0 4
BITMAP
F0
10
20
20
40
40
ENDCHAR
STARTCHAR 2078
ENCODING 8312
SWIDTH 360 0
DWIDTH 5 0
BBX 4 6 0 4
BITMAP
70
90
70
90
90
60
ENDCHAR
STARTCHAR 2079
ENCODING 8313
SWIDTH 360 0
DWIDTH 5 0
BBX 4 6 0 4
BITMAP
70
90
90
70
10
60
ENDCHAR
STARTCHAR 207F
ENCODING 8319
SWIDTH 360 0
DWIDTH 5 0
BBX 3 4 1 4
BITMAP
60
A0
A0
A0
ENDCHAR
STARTCHAR 20A3
ENCODING 8355
SWIDTH 576 0
DWIDTH 8 0
BBX 7 11 1 0
BITMAP
FC
80
80
96
98
F8
90
90
90
90
90
ENDCHAR
STARTCHAR 20A4
ENCODING 8356
SWIDTH 576 0
DWIDTH 8 0
BBX 7 11 0 0
BITMAP
3C
66
42
40
40
F8
20
F8
20
7A
0E
ENDCHAR
STARTCHAR 20A7
ENCODING 8359
SWIDTH 1080 0
DWIDTH 15 0
BBX 12 11 2 0
BITMAP
E000
B000
9000
9000
9000
F400
8660
8480
8460
8490
8670
ENDCHAR
STARTCHAR 20AC
ENCODING 8364
SWIDTH 576 0
DWIDTH 8 0
BBX 7 10 0 0
BITMAP
1E
22
60
FC
40
FC
60
20
32
1E
ENDCHAR
STARTCHAR 20AF
ENCODING 8367
SWIDTH 936 0
DWIDTH 13 0
BBX 11 11 1 -2
BITMAP
3800
E400
A4C0
2720
2520
4520
4640
4A40
F380
0200
0200
ENDCHAR
STARTCHAR 20DD
ENCODING 8413
SWIDTH 1008 0
DWIDTH 14 0
BBX 10 10 2 0
BITMAP
1E00
6100
4080
8040
8040
8040
8040
4080
6100
1E00
ENDCHAR
STARTCHAR 2105
ENCODING 8453
SWIDTH 864 0
DWIDTH 12 0
BBX 10 10 1 0
BITMAP
6100
9200
8200
9400
6580
0A40
0A40
1240
1240
21C0
ENDCHAR
STARTCHAR 210F
ENCODING 8463
SWIDTH 576 0
DWIDTH 8 0
BBX 6 10 1 0
BITMAP
70
28
30
EC
54
64
4C
C8
88
8C
ENDCHAR
STARTCHAR 2111
ENCODING 8465
SWIDTH 720 0
DWIDTH 10 0
BBX 8 11 1 -1
BITMAP
38
C8
8D
86
80
86
4D
04
C6
66
38
ENDCHAR
STARTCHAR 2112
ENCODING 8466
SWIDTH 864 0
DWIDTH 12 0
BBX 10 10 1 0
BITMAP
33C0
4240
4640
4680
2700
1C00
0400
0400
E800
F780
ENDCHAR
STARTCHAR 2113
ENCODING 8467
SWIDTH 288 0
DWIDTH 4 0
BBX 4 11 0 0
BITMAP
10
30
30
50
60
60
40
C0
80
A0
40
ENDCHAR
STARTCHAR 2116
ENCODING 8470
SWIDTH 1080 0
DWIDTH 15 0
BBX 13 11 1 0
BITMAP
8470
C498
C488
E508
A508
B588
9498
9C70
8C00
8C00
85F8
ENDCHAR
STARTCHAR 2118
ENCODING 8472
SWIDTH 648 0
DWIDTH 9 0
BBX 7 7 1 -1
BITMAP
6E
B2
C2
54
E8
D0
C0
ENDCHAR
STARTCHAR 211C
ENCODING 8476
SWIDTH 792 0
DWIDTH 11 0
BBX 8 9 1 0
BITMAP
76
99
99
9A
7E
5A
1A
53
E1
ENDCHAR
STARTCHAR 211E
ENCODING 8478
SWIDTH 792 0
DWIDTH 11 0
BBX 7 9 2 0
BITMAP
FC
86
82
86
FC
8A
8C
8C
8A
ENDCHAR
STARTCHAR 2120
ENCODING 8480
SWIDTH 576 0
DWIDTH 8 0
BBX 8 5 0 5
BITMAP
69
8B
6F
AF
69
ENDCHAR
STARTCHAR 2122
ENCODING 8482
SWIDTH 1008 0
DWIDTH 14 0
BBX 12 6 1 5
BITMAP
FA10
2330
2330
2350
22D0
22D0
ENDCHAR
STARTCHAR 2126
ENCODING 8486
SWIDTH 792 0
DWIDTH 11 0
BBX 10 11 0 0
BITMAP
1F00
3180
60C0
4040
4040
4040
4040
40C0
2080
1100
FBC0
ENDCHAR
STARTCHAR 2128
ENCODING 8488
SWIDTH 576 0
DWIDTH 8 0
BBX 8 13 0 -3
BITMAP
0C
32
03
01
12
12
1C
22
01
01
F1
B2
0C
ENDCHAR
STARTCHAR 212D
ENCODING 8493
SWIDTH 648 0
DWIDTH 9 0
BBX 8 11 1 -1
BITMAP
07
7A
90
98
88
84
A4
E4
59
62
3C
ENDCHAR
STARTCHAR 212E
ENCODING 8494
SWIDTH 576 0
DWIDTH 8 0
BBX 6 8 1 0
BITMAP
78
C4
84
FC
80
80
C4
78
ENDCHAR
STARTCHAR 212F
ENCODING 8495
SWIDTH 504 0
DWIDTH 7 0
BBX 5 7 1 0
BITMAP
38
48
58
E0
80
88
F0
ENDCHAR
STARTCHAR 2135
ENCODING 8501
SWIDTH 504 0
DWIDTH 7 0
BBX 7 8 0 1
BITMAP
9E
4E
28
58
58
68
64
64
ENDCHAR
STARTCHAR 2136
ENCODING 8502
SWIDTH 432 0
DWIDTH 6 0
BBX 5 7 1 1
BITMAP
F0
F8
08
08
08
F8
F8
ENDCHAR
STARTCHAR 2137
ENCODING 8503
SWIDTH 360 0
DWIDTH 5 0
BBX 3 8 1 0
BITMAP
80
E0
20
20
20
20
E0
C0
ENDCHAR
STARTCHAR 215B
ENCODING 8539
SWIDTH 864 0
DWIDTH 12 0
BBX 10 10 1 0
BITMAP
4100
C200
4400
4400
4980
4A40
1180
2240
2240
4180
ENDCHAR
STARTCHAR 215C
ENCODING 8540
SWIDTH 864 0
DWIDTH 12 0
BBX 10 10 1 0
BITMAP
E100
9200
2200
3400
1580
EA40
1180
1240
2240
41C0
ENDCHAR
STARTCHAR 215D
ENCODING 8541
SWIDTH 864 0
DWIDTH 12 0
BBX 10 10 1 0
BITMAP
E100
8200
E200
2400
2580
EA40
1280
1180
2240
41C0
ENDCHAR
STARTCHAR 215E
ENCODING 8542
SWIDTH 864 0
DWIDTH 12 0
BBX 10 10 1 0
BITMAP
F200
2200
4400
4800
4980
1240
2180
2240
4240
4180
ENDCHAR
STARTCHAR 2190
ENCODING 8592
SWIDTH 1008 0
DWIDTH 14 0
BBX 12 3 1 3
BITMAP
2000
FFF0
6000
ENDCHAR
STARTCHAR 2191
ENCODING 8593
SWIDTH 504 0
DWIDTH 7 0
BBX 4 11 1 -1
BITMAP
20
60
F0
20
20
20
20
20
20
20
20
ENDCHAR
STARTCHAR 2192
ENCODING 8594
SWIDTH 1008 0
DWIDTH 14 0
BBX 12 3 1 3
BITMAP
0040
FFF0
0040
ENDCHAR
STARTCHAR 2193
ENCODING 8595
SWIDTH 504 0
DWIDTH 7 0
BBX 5 11 1 -1
BITMAP
20
20
20
20
20
20
20
20
A8
70
20
ENDCHAR
STARTCHAR 2194
ENCODING 8596
SWIDTH 1008 0
DWIDTH 14 0
BBX 10 5 2 2
BITMAP
2100
4180
FFC0
4080
2100
ENDCHAR
STARTCHAR 2195
ENCODING 8597
SWIDTH 504 0
DWIDTH 7 0
BBX 5 11 1 -1
BITMAP
20
70
F0
20
20
20
20
A8
70
20
20
ENDCHAR
STARTCHAR 2196
ENCODING 8598
SWIDTH 720 0
DWIDTH 10 0
BBX 10 10 0 -1
BITMAP
C000
F800
A000
5000
0800
0400
0200
0100
0080
0040
ENDCHAR
STARTCHAR 2197
ENCODING 8599
SWIDTH 720 0
DWIDTH 10 0
BBX 10 10 0 -1
BITMAP
00C0
07C0
0180
0280
0400
0800
1000
2000
4000
8000
ENDCHAR
STARTCHAR 2198
ENCODING 8600
SWIDTH 720 0
DWIDTH 10 0
BBX 10 9 0 -1
BITMAP
8000
4000
2000
1000
0800
0500
0280
0580
03C0
ENDCHAR
STARTCHAR 2199
ENCODING 8601
SWIDTH 720 0
DWIDTH 10 0
BBX 10 10 0 -1
BITMAP
0040
0080
0100
0200
0400
4800
5000
A800
F000
8000
ENDCHAR
STARTCHAR 21A8
ENCODING 8616
SWIDTH 504 0
DWIDTH 7 0
BBX 3 13 2 -2
BITMAP
40
C0
E0
40
40
40
40
40
E0
40
40
00
E0
ENDCHAR
STARTCHAR 21B5
ENCODING 8629
SWIDTH 1008 0
DWIDTH 14 0
BBX 10 5 2 2
BITMAP
0040
7040
FFC0
6000
1000
ENDCHAR
STARTCHAR 21C4
ENCODING 8644
SWIDTH 1008 0
DWIDTH 14 0
BBX 10 8 2 1
BITMAP
0100
0080
FFC0
2180
4100
FFC0
4000
2000
ENDCHAR
STARTCHAR 21C6
ENCODING 8646
SWIDTH 1008 0
DWIDTH 14 0
BBX 10 8 2 1
BITMAP
2000
4000
FFC0
4100
2180
FFC0
0080
0100
ENDCHAR
STARTCHAR 21D0
ENCODING 8656
SWIDTH 720 0
DWIDTH 10 0
BBX 9 6 1 1
BITMAP
2000
7F80
8000
8000
7F80
2000
ENDCHAR
STARTCHAR 21D1
ENCODING 8657
SWIDTH 720 0
DWIDTH 10 0
BBX 6 8 2 1
BITMAP
30
48
CC
48
48
48
48
48
ENDCHAR
STARTCHAR 21D2
ENCODING 8658
SWIDTH 720 0
DWIDTH 10 0
BBX 9 6 0 1
BITMAP
0200
FF00
0080
0080
FF00
0200
ENDCHAR
STARTCHAR 21D3
ENCODING 8659
SWIDTH 720 0
DWIDTH 10 0
BBX 6 9 2 0
BITMAP
48
48
48
48
48
CC
48
30
20
ENDCHAR
STARTCHAR 21D4
ENCODING 8660
SWIDTH 720 0
DWIDTH 10 0
BBX 9 6 0 1
BITMAP
1200
3F00
4080
C080
3F00
1200
ENDCHAR
STARTCHAR 21D5
ENCODING 8661
SWIDTH 720 0
DWIDTH 10 0
BBX 6 9 2 -1
BITMAP
30
48
D4
50
50
50
50
CC
30
ENDCHAR
STARTCHAR 2200
ENCODING 8704
SWIDTH 576 0
DWIDTH 8 0
BBX 8 8 0 0
BITMAP
C1
42
42
3E
24
3C
18
18
ENDCHAR
STARTCHAR 2202
ENCODING 8706
SWIDTH 504 0
DWIDTH 7 0
BBX 6 11 0 0
BITMAP
30
48
04
04
04
3C
44
C4
C4
48
70
ENDCHAR
STARTCHAR 2203
ENCODING 8707
SWIDTH 432 0
DWIDTH 6 0
BBX 4 8 1 0
BITMAP
F0
10
10
F0
10
10
10
F0
ENDCHAR
STARTCHAR 2205
ENCODING 8709
SWIDTH 1008 0
DWIDTH 14 0
BBX 10 10 2 0
BITMAP
1E00
2140
4180
8240
8440
8840
9040
6080
A180
1E00
ENDCHAR
STARTCHAR 2206
ENCODING 8710
SWIDTH 648 0
DWIDTH 9 0
BBX 8 9 0 0
BITMAP
08
18
14
34
26
62
42
41
FF
ENDCHAR
STARTCHAR 2207
ENCODING 8711
SWIDTH 720 0
DWIDTH 10 0
BBX 8 9 1 0
BITMAP
FF
43
42
62
26
24
14
18
18
ENDCHAR
STARTCHAR 2208
ENCODING 8712
SWIDTH 1008 0
DWIDTH 14 0
BBX 8 7 3 0
BITMAP
3F
40
80
FF
80
40
7F
ENDCHAR
STARTCHAR 2209
ENCODING 8713
SWIDTH 1008 0
DWIDTH 14 0
BBX 8 8 3 -1
BITMAP
02
3F
44
88
FF
90
60
7F
ENDCHAR
STARTCHAR 220B
ENCODING 8715
SWIDTH 1008 0
DWIDTH 14 0
BBX 8 7 3 0
BITMAP
FC
02
01
FF
01
02
FC
ENDCHAR
STARTCHAR 220D
ENCODING 8717
SWIDTH 504 0
DWIDTH 7 0
BBX 6 6 1 0
BITMAP
F8
04
FC
04
04
F8
ENDCHAR
STARTCHAR 220F
ENCODING 8719
SWIDTH 1008 0
DWIDTH 14 0
BBX 10 13 2 -3
BITMAP
FFC0
4180
4180
4180
4180
4180
4180
4180
4180
4180
4180
4180
E3C0
ENDCHAR
STARTCHAR 2211
ENCODING 8721
SWIDTH 1008 0
DWIDTH 14 0
BBX 7 12 3 -2
BITMAP
FE
C2
42
20
20
10
10
20
60
42
C2
FE
ENDCHAR
STARTCHAR 2212
ENCODING 8722
SWIDTH 576 0
DWIDTH 8 0
BBX 7 1 1 3
BITMAP
FE
ENDCHAR
STARTCHAR 2213
ENCODING 8723
SWIDTH 1008 0
DWIDTH 14 0
BBX 6 9 4 0
BITMAP
FC
00
20
20
20
FC
20
20
20
ENDCHAR
STARTCHAR 2215
ENCODING 8725
SWIDTH 288 0
DWIDTH 4 0
BBX 7 10 -2 0
BITMAP
02
04
04
08
08
10
20
20
40
80
ENDCHAR
STARTCHAR 2217
ENCODING 8727
SWIDTH 1008 0
DWIDTH 14 0
BBX 4 4 5 1
BITMAP
D0
60
D0
40
ENDCHAR
STARTCHAR 2219
ENCODING 8729
SWIDTH 288 0
DWIDTH 4 0
BBX 1 1 2 3
BITMAP
80
ENDCHAR
STARTCHAR 221A
ENCODING 8730
SWIDTH 432 0
DWIDTH 6 0
BBX 6 12 0 1
BITMAP
04
04
04
04
04
C4
48
28
28
18
18
08
ENDCHAR
STARTCHAR 221D
ENCODING 8733
SWIDTH 1008 0
DWIDTH 14 0
BBX 6 4 3 1
BITMAP
E4
98
98
E4
ENDCHAR
STARTCHAR 221E
ENCODING 8734
SWIDTH 720 0
DWIDTH 10 0
BBX 10 4 0 2
BITMAP
6100
9E80
8C40
7380
ENDCHAR
STARTCHAR 221F
ENCODING 8735
SWIDTH 1008 0
DWIDTH 14 0
BBX 12 12 1 0
BITMAP
8000
8000
8000
8000
8000
8000
8000
8000
8000
8000
8000
FFF0
ENDCHAR
STARTCHAR 2220
ENCODING 8736
SWIDTH 1008 0
DWIDTH 14 0
BBX 8 5 3 1
BITMAP
0C
10
20
40
FF
ENDCHAR
STARTCHAR 2223
ENCODING 8739
SWIDTH 720 0
DWIDTH 10 0
BBX 1 13 4 -4
BITMAP
80
80
80
80
80
80
80
80
80
80
80
80
80
ENDCHAR
STARTCHAR 2225
ENCODING 8741
SWIDTH 720 0
DWIDTH 10 0
BBX 3 16 3 -4
BITMAP
A0
A0
A0
A0
A0
A0
A0
A0
A0
A0
A0
A0
A0
A0
A0
80
ENDCHAR
STARTCHAR 2227
ENCODING 8743
SWIDTH 1008 0
DWIDTH 14 0
BBX 6 7 4 0
BITMAP
30
30
58
48
C8
84
84
ENDCHAR
STARTCHAR 2228
ENCODING 8744
SWIDTH 1008 0
DWIDTH 14 0
BBX 6 7 4 0
BITMAP
84
84
48
48
50
30
30
ENDCHAR
STARTCHAR 2229
ENCODING 8745
SWIDTH 720 0
DWIDTH 10 0
BBX 6 9 2 0
BITMAP
78
CC
84
84
84
84
84
84
84
ENDCHAR
STARTCHAR 222A
ENCODING 8746
SWIDTH 720 0
DWIDTH 10 0
BBX 6 8 2 0
BITMAP
84
84
84
84
84
84
84
78
ENDCHAR
STARTCHAR 222B
ENCODING 8747
SWIDTH 288 0
DWIDTH 4 0
BBX 4 15 0 -2
BITMAP
30
40
40
40
20
20
20
20
20
20
20
20
40
C0
C0
ENDCHAR
STARTCHAR 222E
ENCODING 8750
SWIDTH 1008 0
DWIDTH 14 0
BBX 6 16 4 -3
BITMAP
38
20
20
20
20
30
E8
B4
B4
B8
70
30
10
10
20
E0
ENDCHAR
STARTCHAR 2234
ENCODING 8756
SWIDTH 1008 0
DWIDTH 14 0
BBX 8 9 3 0
BITMAP
18
18
00
00
00
00
00
81
83
ENDCHAR
STARTCHAR 2235
ENCODING 8757
SWIDTH 1008 0
DWIDTH 14 0
BBX 8 9 3 0
BITMAP
81
83
00
00
00
00
00
18
18
ENDCHAR
STARTCHAR 2237
ENCODING 8759
SWIDTH 1008 0
DWIDTH 14 0
BBX 8 9 3 0
BITMAP
81
83
00
00
00
00
00
81
83
ENDCHAR
STARTCHAR 2245
ENCODING 8773
SWIDTH 1008 0
DWIDTH 14 0
BBX 6 5 4 1
BITMAP
E4
18
FC
00
FC
ENDCHAR
STARTCHAR 2248
ENCODING 8776
SWIDTH 576 0
DWIDTH 8 0
BBX 7 4 0 1
BITMAP
72
8C
72
8C
ENDCHAR
STARTCHAR 2260
ENCODING 8800
SWIDTH 576 0
DWIDTH 8 0
BBX 7 7 0 0
BITMAP
04
08
FE
10
FE
20
40
ENDCHAR
STARTCHAR 2261
ENCODING 8801
SWIDTH 576 0
DWIDTH 8 0
BBX 6 6 1 0
BITMAP
FC
00
FC
00
00
FC
ENDCHAR
STARTCHAR 2262
ENCODING 8802
SWIDTH 1008 0
DWIDTH 14 0
BBX 6 8 4 0
BITMAP
08
FC
10
10
FC
20
FC
80
ENDCHAR
STARTCHAR 2264
ENCODING 8804
SWIDTH 576 0
DWIDTH 8 0
BBX 7 9 0 0
BITMAP
02
0C
70
C0
38
0E
00
00
FE
ENDCHAR
STARTCHAR 2265
ENCODING 8805
SWIDTH 576 0
DWIDTH 8 0
BBX 7 9 0 0
BITMAP
C0
70
0C
02
1C
60
80
00
FE
ENDCHAR
STARTCHAR 226A
ENCODING 8810
SWIDTH 1008 0
DWIDTH 14 0
BBX 9 8 2 -1
BITMAP
0080
0300
0C80
7300
EE00
3980
0600
0180
ENDCHAR
STARTCHAR 226B
ENCODING 8811
SWIDTH 1008 0
DWIDTH 14 0
BBX 9 9 2 -1
BITMAP
C000
3000
CC00
3300
1980
6600
9800
E000
8000
ENDCHAR
STARTCHAR 2282
ENCODING 8834
SWIDTH 1008 0
DWIDTH 14 0
BBX 8 7 3 0
BITMAP
3F
40
80
80
80
40
7F
ENDCHAR
STARTCHAR 2283
ENCODING 8835
SWIDTH 1008 0
DWIDTH 14 0
BBX 8 7 3 0
BITMAP
FC
02
01
01
01
02
FC
ENDCHAR
STARTCHAR 2284
ENCODING 8836
SWIDTH 1008 0
DWIDTH 14 0
BBX 8 9 3 -1
BITMAP
02
3F
44
84
88
90
50
7F
20
ENDCHAR
STARTCHAR 2285
ENCODING 8837
SWIDTH 1008 0
DWIDTH 14 0
BBX 8 8 3 0
BITMAP
FC
22
21
11
11
0A
FC
04
ENDCHAR
STARTCHAR 2286
ENCODING 8838
SWIDTH 1008 0
DWIDTH 14 0
BBX 8 8 3 0
BITMAP
3F
40
80
80
40
3F
00
FF
ENDCHAR
STARTCHAR 2287
ENCODING 8839
SWIDTH 1008 0
DWIDTH 14 0
BBX 8 8 3 0
BITMAP
FC
02
01
01
02
FC
00
FF
ENDCHAR
STARTCHAR 2295
ENCODING 8853
SWIDTH 1008 0
DWIDTH 14 0
BBX 10 10 2 0
BITMAP
3F00
4880
8880
8840
FFC0
8840
8840
4880
6900
1E00
ENDCHAR
STARTCHAR 2296
ENCODING 8854
SWIDTH 1008 0
DWIDTH 14 0
BBX 10 10 2 0
BITMAP
1E00
2100
4080
8040
8040
FFC0
8040
8080
4180
3E00
ENDCHAR
STARTCHAR 2297
ENCODING 8855
SWIDTH 1008 0
DWIDTH 14 0
BBX 10 10 2 0
BITMAP
1E00
6100
6180
9240
8C40
8C40
9240
6180
6100
1E00
ENDCHAR
STARTCHAR 2298
ENCODING 8856
SWIDTH 1008 0
DWIDTH 14 0
BBX 10 10 2 0
BITMAP
1E00
6100
4180
8240
8440
8840
9040
6080
6100
1E00
ENDCHAR
STARTCHAR 2299
ENCODING 8857
SWIDTH 1008 0
DWIDTH 14 0
BBX 10 10 2 0
BITMAP
1E00
2100
4080
8040
8840
8C40
8040
4080
6180
1E00
ENDCHAR
STARTCHAR 22A2
ENCODING 8866
SWIDTH 1008 0
DWIDTH 14 0
BBX 8 1 3 3
BITMAP
FF
ENDCHAR
STARTCHAR 22A3
ENCODING 8867
SWIDTH 1008 0
DWIDTH 14 0
BBX 8 7 3 0
BITMAP
01
01
01
FF
01
01
01
ENDCHAR
STARTCHAR 22A4
ENCODING 8868
SWIDTH 1008 0
DWIDTH 14 0
BBX 8 9 3 0
BITMAP
FF
10
10
10
10
10
10
10
10
ENDCHAR
STARTCHAR 22A5
ENCODING 8869
SWIDTH 1008 0
DWIDTH 14 0
BBX 8 8 3 0
BITMAP
10
10
10
10
10
10
10
FF
ENDCHAR
STARTCHAR 22BB
ENCODING 8891
SWIDTH 1008 0
DWIDTH 14 0
BBX 8 10 3 -2
BITMAP
81
42
42
44
24
28
18
18
00
FF
ENDCHAR
STARTCHAR 2302
ENCODING 8962
SWIDTH 576 0
DWIDTH 8 0
BBX 7 11 1 0
BITMAP
10
30
48
44
84
82
82
82
82
82
FE
ENDCHAR
STARTCHAR 2310
ENCODING 8976
SWIDTH 576 0
DWIDTH 8 0
BBX 7 4 1 1
BITMAP
FE
80
80
80
ENDCHAR
STARTCHAR 2320
ENCODING 8992
SWIDTH 576 0
DWIDTH 8 0
BBX 2 16 4 -3
BITMAP
C0
80
80
80
80
80
80
80
80
80
80
80
80
80
80
80
ENDCHAR
STARTCHAR 2321
ENCODING 8993
SWIDTH 576 0
DWIDTH 8 0
BBX 3 16 2 -3
BITMAP
20
20
20
20
20
20
20
20
20
20
20
20
20
20
40
C0
ENDCHAR
STARTCHAR 2329
ENCODING 9001
SWIDTH 360 0
DWIDTH 5 0
BBX 3 10 1 -2
BITMAP
20
40
40
80
80
80
40
40
40
20
ENDCHAR
STARTCHAR 232A
ENCODING 9002
SWIDTH 360 0
DWIDTH 5 0
BBX 3 9 1 -2
BITMAP
80
80
40
40
20
40
40
80
80
ENDCHAR
STARTCHAR 2500
ENCODING 9472
SWIDTH 1008 0
DWIDTH 14 0
BBX 14 1 0 3
BITMAP
FFFC
ENDCHAR
STARTCHAR 2502
ENCODING 9474
SWIDTH 1008 0
DWIDTH 14 0
BBX 1 14 6 -4
BITMAP
80
80
80
80
80
80
80
80
80
80
80
80
80
80
ENDCHAR
STARTCHAR 250C
ENCODING 9484
SWIDTH 1008 0
DWIDTH 14 0
BBX 8 7 6 -3
BITMAP
FF
80
80
80
80
80
80
ENDCHAR
STARTCHAR 2510
ENCODING 9488
SWIDTH 1008 0
DWIDTH 14 0
BBX 7 7 0 -3
BITMAP
FE
02
02
02
02
02
02
ENDCHAR
STARTCHAR 2514
ENCODING 9492
SWIDTH 1008 0
DWIDTH 14 0
BBX 8 7 6 3
BITMAP
80
80
80
80
80
80
FF
ENDCHAR
STARTCHAR 2518
ENCODING 9496
SWIDTH 1008 0
DWIDTH 14 0
BBX 7 7 0 3
BITMAP
02
02
02
02
02
02
FE
ENDCHAR
STARTCHAR 251C
ENCODING 9500
SWIDTH 1008 0
DWIDTH 14 0
BBX 8 13 6 -3
BITMAP
80
80
80
80
80
80
FF
80
80
80
80
80
80
ENDCHAR
STARTCHAR 2524
ENCODING 9508
SWIDTH 1008 0
DWIDTH 14 0
BBX 7 13 0 -3
BITMAP
02
02
02
02
02
02
FE
02
02
02
02
02
02
ENDCHAR
STARTCHAR 252C
ENCODING 9516
SWIDTH 1008 0
DWIDTH 14 0
BBX 14 7 0 -3
BITMAP
FFFC
0200
0200
0200
0200
0200
0200
ENDCHAR
STARTCHAR 2534
ENCODING 9524
SWIDTH 1008 0
DWIDTH 14 0
BBX 14 7 0 3
BITMAP
0200
0200
0200
0200
0200
0200
FFFC
ENDCHAR
STARTCHAR 253C
ENCODING 9532
SWIDTH 1008 0
DWIDTH 14 0
BBX 14 13 0 -3
BITMAP
0200
0200
0200
0200
0200
0200
FFFC
0200
0200
0200
0200
0200
0200
ENDCHAR
STARTCHAR 2550
ENCODING 9552
SWIDTH 1008 0
DWIDTH 14 0
BBX 14 3 0 2
BITMAP
FFFC
0000
FFFC
ENDCHAR
STARTCHAR 2551
ENCODING 9553
SWIDTH 1008 0
DWIDTH 14 0
BBX 2 14 6 -4
BITMAP
C0
C0
C0
C0
C0
C0
C0
C0
C0
C0
C0
C0
C0
40
ENDCHAR
STARTCHAR 2552
ENCODING 9554
SWIDTH 1008 0
DWIDTH 14 0
BBX 8 8 6 -3
BITMAP
FF
80
FF
80
80
80
80
80
ENDCHAR
STARTCHAR 2553
ENCODING 9555
SWIDTH 1008 0
DWIDTH 14 0
BBX 8 7 6 -3
BITMAP
FF
C0
C0
C0
C0
C0
40
ENDCHAR
STARTCHAR 2554
ENCODING 9556
SWIDTH 1008 0
DWIDTH 14 0
BBX 8 8 6 -3
BITMAP
FF
80
FF
C0
C0
C0
C0
40
ENDCHAR
STARTCHAR 2555
ENCODING 9557
SWIDTH 1008 0
DWIDTH 14 0
BBX 7 8 0 -3
BITMAP
FE
02
FE
02
02
02
02
02
ENDCHAR
STARTCHAR 2556
ENCODING 9558
SWIDTH 1008 0
DWIDTH 14 0
BBX 8 7 0 -3
BITMAP
FF
05
05
05
05
05
01
ENDCHAR
STARTCHAR 2557
ENCODING 9559
SWIDTH 1008 0
DWIDTH 14 0
BBX 8 8 0 -3
BITMAP
FF
01
FD
05
05
05
05
01
ENDCHAR
STARTCHAR 2558
ENCODING 9560
SWIDTH 1008 0
DWIDTH 14 0
BBX 8 8 6 2
BITMAP
80
80
80
80
80
FF
80
FF
ENDCHAR
STARTCHAR 2559
ENCODING 9561
SWIDTH 1008 0
DWIDTH 14 0
BBX 8 7 6 3
BITMAP
C0
C0
C0
C0
C0
C0
FF
ENDCHAR
STARTCHAR 255A
ENCODING 9562
SWIDTH 1008 0
DWIDTH 14 0
BBX 8 8 6 2
BITMAP
C0
C0
C0
C0
C0
FF
80
FF
ENDCHAR
STARTCHAR 255B
ENCODING 9563
SWIDTH 1008 0
DWIDTH 14 0
BBX 7 8 0 2
BITMAP
02
02
02
02
02
FE
02
FE
ENDCHAR
STARTCHAR 255C
ENCODING 9564
SWIDTH 1008 0
DWIDTH 14 0
BBX 8 7 0 3
BITMAP
05
05
05
05
05
05
FF
ENDCHAR
STARTCHAR 255D
ENCODING 9565
SWIDTH 1008 0
DWIDTH 14 0
BBX 8 8 0 2
BITMAP
05
05
05
05
05
FD
01
FF
ENDCHAR
STARTCHAR 255E
ENCODING 9566
SWIDTH 1008 0
DWIDTH 14 0
BBX 8 13 6 -3
BITMAP
80
80
80
80
80
FF
80
FF
80
80
80
80
80
ENDCHAR
STARTCHAR 255F
ENCODING 9567
SWIDTH 1008 0
DWIDTH 14 0
BBX 8 13 6 -3
BITMAP
C0
C0
C0
C0
C0
C0
FF
C0
C0
C0
C0
C0
40
ENDCHAR
STARTCHAR 2560
ENCODING 9568
SWIDTH 1008 0
DWIDTH 14 0
BBX 8 13 6 -3
BITMAP
C0
C0
C0
C0
C0
FF
80
FF
C0
C0
C0
C0
40
ENDCHAR
STARTCHAR 2561
ENCODING 9569
SWIDTH 1008 0
DWIDTH 14 0
BBX 7 13 0 -3
BITMAP
02
02
02
02
02
FE
02
FE
02
02
02
02
02
ENDCHAR
STARTCHAR 2562
ENCODING 9570
SWIDTH 1008 0
DWIDTH 14 0
BBX 8 13 0 -3
BITMAP
05
05
05
05
05
05
FD
05
05
05
05
05
01
ENDCHAR
STARTCHAR 2563
ENCODING 9571
SWIDTH 1008 0
DWIDTH 14 0
BBX 8 13 0 -3
BITMAP
05
05
05
05
05
FD
01
FD
05
05
05
05
01
ENDCHAR
STARTCHAR 2564
ENCODING 9572
SWIDTH 1008 0
DWIDTH 14 0
BBX 14 8 0 -3
BITMAP
FFFC
0000
FFFC
0200
0200
0200
0200
0200
ENDCHAR
STARTCHAR 2565
ENCODING 9573
SWIDTH 1008 0
DWIDTH 14 0
BBX 14 7 0 -3
BITMAP
FFFC
0500
0500
0500
0500
0500
0100
ENDCHAR
STARTCHAR 2566
ENCODING 9574
SWIDTH 1008 0
DWIDTH 14 0
BBX 14 8 0 -3
BITMAP
FFFC
0000
FDFC
0500
0500
0500
0500
0100
ENDCHAR
STARTCHAR 2567
ENCODING 9575
SWIDTH 1008 0
DWIDTH 14 0
BBX 14 8 0 2
BITMAP
0200
0200
0200
0200
0200
FFFC
0000
FFFC
ENDCHAR
STARTCHAR 2568
ENCODING 9576
SWIDTH 1008 0
DWIDTH 14 0
BBX 14 7 0 3
BITMAP
0500
0500
0500
0500
0500
0500
FFFC
ENDCHAR
STARTCHAR 2569
ENCODING 9577
SWIDTH 1008 0
DWIDTH 14 0
BBX 14 8 0 2
BITMAP
0500
0500
0500
0500
0500
FDFC
0000
FFFC
ENDCHAR
STARTCHAR 256A
ENCODING 9578
SWIDTH 1008 0
DWIDTH 14 0
BBX 14 13 0 -3
BITMAP
0200
0200
0200
0200
0200
FFFC
0200
FFFC
0200
0200
0200
0200
0200
ENDCHAR
STARTCHAR 256B
ENCODING 9579
SWIDTH 1008 0
DWIDTH 14 0
BBX 14 13 0 -3
BITMAP
0500
0500
0500
0500
0500
0500
FFFC
0500
0500
0500
0500
0500
0100
ENDCHAR
STARTCHAR 256C
ENCODING 9580
SWIDTH 1008 0
DWIDTH 14 0
BBX 14 13 0 -3
BITMAP
0500
0500
0500
0500
0500
FDFC
0000
FDFC
0500
0500
0500
0500
0100
ENDCHAR
STARTCHAR 256D
ENCODING 9581
SWIDTH 1008 0
DWIDTH 14 0
BBX 8 8 6 -4
BITMAP
0F
30
60
40
40
80
80
80
ENDCHAR
STARTCHAR 256E
ENCODING 9582
SWIDTH 1008 0
DWIDTH 14 0
BBX 7 8 0 -4
BITMAP
F0
08
04
02
02
02
02
02
ENDCHAR
STARTCHAR 256F
ENCODING 9583
SWIDTH 1008 0
DWIDTH 14 0
BBX 7 7 0 3
BITMAP
02
02
02
02
04
0C
F0
ENDCHAR
STARTCHAR 2570
ENCODING 9584
SWIDTH 1008 0
DWIDTH 14 0
BBX 8 7 6 3
BITMAP
80
80
80
40
40
30
0F
ENDCHAR
STARTCHAR 2580
ENCODING 9600
SWIDTH 1008 0
DWIDTH 14 0
BBX 14 7 0 3
BITMAP
FFFC
FFFC
FFFC
FFFC
FFFC
FFFC
FFFC
ENDCHAR
STARTCHAR 2584
ENCODING 9604
SWIDTH 1008 0
DWIDTH 14 0
BBX 14 6 0 -3
BITMAP
FFFC
FFFC
FFFC
FFFC
FFFC
FFFC
ENDCHAR
STARTCHAR 2588
ENCODING 9608
SWIDTH 1008 0
DWIDTH 14 0
BBX 14 14 0 -4
BITMAP
FFFC
FFFC
FFFC
FFFC
FFFC
FFFC
FFFC
FFFC
FFFC
FFFC
FFFC
FFFC
FFFC
FFFC
ENDCHAR
STARTCHAR 258C
ENCODING 9612
SWIDTH 1008 0
DWIDTH 14 0
BBX 7 14 0 -4
BITMAP
FE
FE
FE
FE
FE
FE
FE
FE
FE
FE
FE
FE
FE
FE
ENDCHAR
STARTCHAR 2590
ENCODING 9616
SWIDTH 1008 0
DWIDTH 14 0
BBX 7 14 7 -4
BITMAP
FE
FE
FE
FE
FE
FE
FE
FE
FE
FE
FE
FE
FE
FE
ENDCHAR
STARTCHAR 2591
ENCODING 9617
SWIDTH 1008 0
DWIDTH 14 0
BBX 12 11 0 -1
BITMAP
E630
E630
0000
0000
E630
E630
0000
0000
0000
E630
E630
ENDCHAR
STARTCHAR 2592
ENCODING 9618
SWIDTH 1008 0
DWIDTH 14 0
BBX 14 14 0 -4
BITMAP
C670
C670
398C
398C
C670
C670
C670
398C
398C
C670
C670
398C
398C
398C
ENDCHAR
STARTCHAR 2593
ENCODING 9619
SWIDTH 1008 0
DWIDTH 14 0
BBX 14 13 0 -3
BITMAP
FFFC
FFFC
C670
C670
FFFC
FFFC
C670
C670
C670
FFFC
FFFC
C670
C670
ENDCHAR
STARTCHAR 25A0
ENCODING 9632
SWIDTH 576 0
DWIDTH 8 0
BBX 10 11 -1 0
BITMAP
FFC0
FFC0
FFC0
FFC0
FFC0
FFC0
FFC0
FFC0
FFC0
FFC0
FFC0
ENDCHAR
STARTCHAR 25A1
ENCODING 9633
SWIDTH 576 0
DWIDTH 8 0
BBX 7 7 1 0
BITMAP
FE
82
82
82
82
82
FE
ENDCHAR
STARTCHAR 25AA
ENCODING 9642
SWIDTH 360 0
DWIDTH 5 0
BBX 3 4 1 2
BITMAP
E0
E0
E0
E0
ENDCHAR
STARTCHAR 25AB
ENCODING 9643
SWIDTH 360 0
DWIDTH 5 0
BBX 3 4 1 2
BITMAP
E0
A0
A0
E0
ENDCHAR
STARTCHAR 25AC
ENCODING 9644
SWIDTH 1008 0
DWIDTH 14 0
BBX 10 5 2 0
BITMAP
FFC0
FFC0
FFC0
FFC0
FFC0
ENDCHAR
STARTCHAR 25B2
ENCODING 9650
SWIDTH 1008 0
DWIDTH 14 0
BBX 8 7 3 2
BITMAP
18
18
3C
3C
7E
7E
FF
ENDCHAR
STARTCHAR 25B5
ENCODING 9653
SWIDTH 720 0
DWIDTH 10 0
BBX 6 6 2 1
BITMAP
30
30
48
48
84
FC
ENDCHAR
STARTCHAR 25B9
ENCODING 9657
SWIDTH 720 0
DWIDTH 10 0
BBX 6 6 2 0
BITMAP
80
E0
98
8C
B0
C0
ENDCHAR
STARTCHAR 25BA
ENCODING 9658
SWIDTH 1008 0
DWIDTH 14 0
BBX 7 5 3 2
BITMAP
C0
F0
FE
FC
E0
ENDCHAR
STARTCHAR 25BC
ENCODING 9660
SWIDTH 1008 0
DWIDTH 14 0
BBX 8 7 3 1
BITMAP
FF
7E
7E
3C
38
18
10
ENDCHAR
STARTCHAR 25BF
ENCODING 9663
SWIDTH 720 0
DWIDTH 10 0
BBX 6 6 2 0
BITMAP
FC
84
48
48
30
30
ENDCHAR
STARTCHAR 25C3
ENCODING 9667
SWIDTH 720 0
DWIDTH 10 0
BBX 6 6 2 0
BITMAP
04
1C
64
C4
34
0C
ENDCHAR
STARTCHAR 25C4
ENCODING 9668
SWIDTH 1008 0
DWIDTH 14 0
BBX 8 6 3 2
BITMAP
03
1F
FF
3F
07
01
ENDCHAR
STARTCHAR 25C6
ENCODING 9670
SWIDTH 1008 0
DWIDTH 14 0
BBX 8 7 3 2
BITMAP
18
3C
7E
FF
7E
3C
18
ENDCHAR
STARTCHAR 25C7
ENCODING 9671
SWIDTH 1008 0
DWIDTH 14 0
BBX 8 9 3 1
BITMAP
18
24
42
81
81
82
44
28
10
ENDCHAR
STARTCHAR 25CA
ENCODING 9674
SWIDTH 504 0
DWIDTH 7 0
BBX 6 10 0 0
BITMAP
30
28
48
44
84
84
48
48
30
30
ENDCHAR
STARTCHAR 25CB
ENCODING 9675
SWIDTH 576 0
DWIDTH 8 0
BBX 8 8 0 1
BITMAP
3C
42
81
81
81
81
42
3C
ENDCHAR
STARTCHAR 25CF
ENCODING 9679
SWIDTH 576 0
DWIDTH 8 0
BBX 7 7 1 0
BITMAP
78
FC
FE
FE
FE
FC
78
ENDCHAR
STARTCHAR 25D8
ENCODING 9688
SWIDTH 576 0
DWIDTH 8 0
BBX 8 9 0 0
BITMAP
FF
FF
FF
E7
C3
E3
FF
FF
FF
ENDCHAR
STARTCHAR 25D9
ENCODING 9689
SWIDTH 576 0
DWIDTH 8 0
BBX 10 11 -1 0
BITMAP
FFC0
F3C0
DEC0
FF40
BF40
BF40
FF40
DEC0
E1C0
FFC0
FFC0
ENDCHAR
STARTCHAR 25E6
ENCODING 9702
SWIDTH 504 0
DWIDTH 7 0
BBX 5 6 1 1
BITMAP
70
88
88
88
88
70
ENDCHAR
STARTCHAR 263A
ENCODING 9786
SWIDTH 1008 0
DWIDTH 14 0
BBX 10 11 2 0
BITMAP
1E00
2180
4080
9240
8040
8040
A140
B140
5E80
2080
1F00
ENDCHAR
STARTCHAR 263B
ENCODING 9787
SWIDTH 1080 0
DWIDTH 15 0
BBX 10 11 2 0
BITMAP
1E00
3F80
7FC0
6CC0
EDC0
FF40
DFC0
6CC0
71C0
3F80
1E00
ENDCHAR
STARTCHAR 263C
ENCODING 9788
SWIDTH 936 0
DWIDTH 13 0
BBX 11 11 1 0
BITMAP
0400
0400
2E80
3100
2080
E0E0
2080
3100
3F80
0400
0400
ENDCHAR
STARTCHAR 2640
ENCODING 9792
SWIDTH 720 0
DWIDTH 10 0
BBX 5 10 3 1
BITMAP
70
90
88
88
D0
20
20
F8
20
20
ENDCHAR
STARTCHAR 2642
ENCODING 9794
SWIDTH 720 0
DWIDTH 10 0
BBX 8 9 1 2
BITMAP
07
03
05
38
48
84
88
48
30
ENDCHAR
STARTCHAR 2660
ENCODING 9824
SWIDTH 504 0
DWIDTH 7 0
BBX 8 10 0 1
BITMAP
08
18
3C
7E
FF
FF
F7
72
08
3E
ENDCHAR
STARTCHAR 2663
ENCODING 9827
SWIDTH 648 0
DWIDTH 9 0
BBX 10 11 0 0
BITMAP
1C00
3E00
3E00
1E00
FF80
FFC0
FFC0
FF80
4900
0C00
3E00
ENDCHAR
STARTCHAR 2665
ENCODING 9829
SWIDTH 576 0
DWIDTH 8 0
BBX 9 10 0 0
BITMAP
E700
FF80
FF80
FF00
FF00
7E00
3C00
1C00
1800
1000
ENDCHAR
STARTCHAR 2666
ENCODING 9830
SWIDTH 504 0
DWIDTH 7 0
BBX 7 10 0 1
BITMAP
10
38
3C
7C
FE
FE
7C
3C
18
10
ENDCHAR
STARTCHAR 266A
ENCODING 9834
SWIDTH 504 0
DWIDTH 7 0
BBX 5 10 1 1
BITMAP
20
20
30
28
28
28
28
68
E0
C0
ENDCHAR
STARTCHAR 266B
ENCODING 9835
SWIDTH 720 0
DWIDTH 10 0
BBX 8 9 1 0
BITMAP
1C
2F
21
21
21
21
61
E7
46
ENDCHAR
STARTCHAR 301A
ENCODING 12314
SWIDTH 720 0
DWIDTH 10 0
BBX 4 13 3 -2
BITMAP
F0
A0
A0
A0
A0
A0
A0
A0
A0
A0
A0
A0
F0
ENDCHAR
STARTCHAR 301B
ENCODING 12315
SWIDTH 720 0
DWIDTH 10 0
BBX 4 13 3 -2
BITMAP
F0
50
50
50
50
50
50
50
50
50
50
50
F0
ENDCHAR
STARTCHAR EFBF
ENCODING 61375
SWIDTH 720 0
DWIDTH 10 0
BBX 12 11 -2 0
BITMAP
0010
0030
0020
0040
20C0
E080
3100
1200
1600
1400
0800
ENDCHAR
STARTCHAR EFC0
ENCODING 61376
SWIDTH 720 0
DWIDTH 10 0
BBX 7 15 0 -3
BITMAP
1E
1E
1E
1E
1E
1E
1E
1E
1E
1E
1E
1E
1E
1E
FE
ENDCHAR
STARTCHAR EFC1
ENCODING 61377
SWIDTH 720 0
DWIDTH 10 0
BBX 7 15 0 -3
BITMAP
FE
1E
1E
1E
1E
1E
1E
1E
1E
1E
1E
1E
1E
1E
1E
ENDCHAR
STARTCHAR EFC2
ENCODING 61378
SWIDTH 720 0
DWIDTH 10 0
BBX 10 14 0 -4
BITMAP
FFC0
4080
4080
4080
4080
4080
4080
4080
4080
4080
4080
4080
4080
4080
ENDCHAR
STARTCHAR EFC3
ENCODING 61379
SWIDTH 720 0
DWIDTH 10 0
BBX 10 13 0 -3
BITMAP
4080
4080
4080
4080
4080
4080
4080
4080
4080
4080
4080
4080
FFC0
ENDCHAR
STARTCHAR EFC4
ENCODING 61380
SWIDTH 720 0
DWIDTH 10 0
BBX 7 15 3 -3
BITMAP
F0
F0
F0
F0
F0
F0
F0
F0
F0
F0
F0
F0
F0
F0
FE
ENDCHAR
STARTCHAR EFC5
ENCODING 61381
SWIDTH 720 0
DWIDTH 10 0
BBX 7 15 3 -3
BITMAP
FE
F0
F0
F0
F0
F0
F0
F0
F0
F0
F0
F0
F0
F0
F0
ENDCHAR
STARTCHAR EFC6
ENCODING 61382
SWIDTH 720 0
DWIDTH 10 0
BBX 8 14 1 -4
BITMAP
3C
42
81
81
81
81
81
81
81
81
81
81
81
81
ENDCHAR
STARTCHAR EFC7
ENCODING 61383
SWIDTH 720 0
DWIDTH 10 0
BBX 8 13 1 -3
BITMAP
81
81
81
81
81
81
81
81
81
81
81
C3
3C
ENDCHAR
STARTCHAR EFC8
ENCODING 61384
SWIDTH 720 0
DWIDTH 10 0
BBX 8 14 1 -4
BITMAP
81
81
81
81
81
81
81
81
81
81
81
81
81
81
ENDCHAR
STARTCHAR EFC9
ENCODING 61385
SWIDTH 720 0
DWIDTH 10 0
BBX 4 15 3 -3
BITMAP
F0
F0
F0
F0
F0
F0
F0
F0
F0
F0
F0
F0
F0
F0
F0
ENDCHAR
STARTCHAR EFCA
ENCODING 61386
SWIDTH 720 0
DWIDTH 10 0
BBX 6 8 2 -1
BITMAP
20
30
50
48
84
FC
00
FC
ENDCHAR
STARTCHAR EFCB
ENCODING 61387
SWIDTH 720 0
DWIDTH 10 0
BBX 10 3 0 3
BITMAP
FFC0
0000
FFC0
ENDCHAR
STARTCHAR EFCC
ENCODING 61388
SWIDTH 720 0
DWIDTH 10 0
BBX 5 14 5 -3
BITMAP
08
18
10
20
60
40
80
80
C0
40
20
30
10
08
ENDCHAR
STARTCHAR EFCD
ENCODING 61389
SWIDTH 720 0
DWIDTH 10 0
BBX 10 14 0 -3
BITMAP
8000
C000
4000
2000
3000
1800
0800
0400
0600
0200
0100
0080
00C0
0040
ENDCHAR
STARTCHAR EFCE
ENCODING 61390
SWIDTH 720 0
DWIDTH 10 0
BBX 9 5 0 -3
BITMAP
0080
0080
0180
0380
FF00
ENDCHAR
STARTCHAR EFCF
ENCODING 61391
SWIDTH 720 0
DWIDTH 10 0
BBX 5 14 0 -3
BITMAP
80
C0
40
20
30
10
08
08
18
10
20
60
40
80
ENDCHAR
STARTCHAR EFD0
ENCODING 61392
SWIDTH 720 0
DWIDTH 10 0
BBX 9 5 0 7
BITMAP
FF00
0700
0100
0180
0080
ENDCHAR
STARTCHAR EFD1
ENCODING 61393
SWIDTH 720 0
DWIDTH 10 0
BBX 10 14 0 -3
BITMAP
0040
00C0
0080
0100
0300
0200
0400
0800
1800
1000
2000
6000
4000
8000
ENDCHAR
STARTCHAR EFD2
ENCODING 61394
SWIDTH 720 0
DWIDTH 10 0
BBX 10 15 0 -3
BITMAP
0040
0040
0080
0180
0100
0200
0400
0C00
0800
1000
2000
6000
4000
8000
FFC0
ENDCHAR
STARTCHAR EFD3
ENCODING 61395
SWIDTH 720 0
DWIDTH 10 0
BBX 10 14 0 -3
BITMAP
FFC0
8000
4000
2000
3000
1000
0800
0C00
0600
0200
0100
0180
0080
0040
ENDCHAR
STARTCHAR EFD4
ENCODING 61396
SWIDTH 720 0
DWIDTH 10 0
BBX 6 14 2 -4
BITMAP
30
30
30
30
FC
B4
B4
B4
B4
78
30
30
30
30
ENDCHAR
STARTCHAR EFD5
ENCODING 61397
SWIDTH 576 0
DWIDTH 8 0
BBX 7 10 1 -3
BITMAP
1E
60
40
40
50
E0
80
80
80
80
ENDCHAR
STARTCHAR EFD6
ENCODING 61398
SWIDTH 1008 0
DWIDTH 14 0
BBX 11 5 1 5
BITMAP
F660
26A0
26A0
25A0
2520
ENDCHAR
STARTCHAR EFD7
ENCODING 61399
SWIDTH 1008 0
DWIDTH 14 0
BBX 10 12 2 -1
BITMAP
1E00
6100
8080
8E40
9240
A040
A040
9240
8E40
8080
6100
1E00
ENDCHAR
STARTCHAR EFD8
ENCODING 61400
SWIDTH 1008 0
DWIDTH 14 0
BBX 10 12 2 -1
BITMAP
1E00
6100
8080
9E40
9240
9E40
9440
9240
8040
4080
2100
1E00
ENDCHAR
STARTCHAR EFD9
ENCODING 61401
SWIDTH 1008 0
DWIDTH 14 0
BBX 13 5 0 4
BITMAP
FF98
B698
32B8
3258
3158
ENDCHAR
STARTCHAR EFDA
ENCODING 61402
SWIDTH 1008 0
DWIDTH 14 0
BBX 10 12 2 -1
BITMAP
1E00
6100
8080
9E40
9240
9040
9040
9240
8C40
4080
2100
1E00
ENDCHAR
STARTCHAR EFDB
ENCODING 61403
SWIDTH 1008 0
DWIDTH 14 0
BBX 10 12 2 -1
BITMAP
1E00
6180
8080
9E40
9240
9E40
9440
9240
9B40
8080
6100
1E00
ENDCHAR
STARTCHAR EFDC
ENCODING 61404
SWIDTH 720 0
DWIDTH 10 0
BBX 5 15 1 -3
BITMAP
18
18
18
18
18
18
18
18
18
18
D8
58
38
18
18
ENDCHAR
STARTCHAR EFDD
ENCODING 61405
SWIDTH 720 0
DWIDTH 10 0
BBX 2 15 4 -3
BITMAP
C0
C0
C0
C0
C0
C0
C0
C0
C0
C0
C0
C0
C0
C0
C0
ENDCHAR
STARTCHAR EFDE
ENCODING 61406
SWIDTH 720 0
DWIDTH 10 0
BBX 4 14 2 -4
BITMAP
30
30
30
30
30
30
30
30
30
30
30
20
60
80
ENDCHAR
STARTCHAR EFDF
ENCODING 61407
SWIDTH 720 0
DWIDTH 10 0
BBX 4 14 4 -4
BITMAP
C0
C0
C0
C0
40
40
30
20
40
C0
C0
C0
C0
C0
ENDCHAR
STARTCHAR EFE0
ENCODING 61408
SWIDTH 720 0
DWIDTH 10 0
BBX 3 13 3 -3
BITMAP
C0
40
60
60
60
60
60
60
60
60
60
60
60
ENDCHAR
STARTCHAR EFE1
ENCODING 61409
SWIDTH 720 0
DWIDTH 10 0
BBX 4 14 4 -4
BITMAP
C0
C0
C0
C0
C0
C0
C0
C0
C0
C0
C0
40
60
10
ENDCHAR
STARTCHAR EFE2
ENCODING 61410
SWIDTH 720 0
DWIDTH 10 0
BBX 4 14 2 -4
BITMAP
30
30
30
30
30
20
C0
60
20
30
30
30
30
30
ENDCHAR
STARTCHAR EFE3
ENCODING 61411
SWIDTH 720 0
DWIDTH 10 0
BBX 4 14 4 -4
BITMAP
30
40
40
C0
C0
C0
C0
C0
C0
C0
C0
C0
C0
C0
ENDCHAR
STARTCHAR EFE4
ENCODING 61412
SWIDTH 720 0
DWIDTH 10 0
BBX 6 15 0 -3
BITMAP
0C
0C
0C
0C
0C
0C
0C
0C
0C
0C
0C
0C
0C
0C
FC
ENDCHAR
STARTCHAR EFE5
ENCODING 61413
SWIDTH 720 0
DWIDTH 10 0
BBX 6 15 0 -3
BITMAP
FC
0C
0C
0C
0C
0C
0C
0C
0C
0C
0C
0C
0C
0C
0C
ENDCHAR
STARTCHAR EFE6
ENCODING 61414
SWIDTH 720 0
DWIDTH 10 0
BBX 6 15 4 -3
BITMAP
C0
C0
C0
C0
C0
C0
C0
C0
C0
C0
C0
C0
C0
C0
FC
ENDCHAR
STARTCHAR EFE7
ENCODING 61415
SWIDTH 720 0
DWIDTH 10 0
BBX 6 15 4 -3
BITMAP
FC
C0
C0
C0
C0
C0
C0
C0
C0
C0
C0
C0
C0
C0
C0
ENDCHAR
STARTCHAR EFE8
ENCODING 61416
SWIDTH 720 0
DWIDTH 10 0
BBX 10 1 0 4
BITMAP
FFC0
ENDCHAR
STARTCHAR EFE9
ENCODING 61417
SWIDTH 720 0
DWIDTH 10 0
BBX 10 2 0 11
BITMAP
0100
FFC0
ENDCHAR
STARTCHAR EFEA
ENCODING 61418
SWIDTH 720 0
DWIDTH 10 0
BBX 10 1 0 11
BITMAP
FFC0
ENDCHAR
STARTCHAR EFEB
ENCODING 61419
SWIDTH 720 0
DWIDTH 10 0
BBX 10 1 0 -3
BITMAP
FFC0
ENDCHAR
STARTCHAR EFEC
ENCODING 61420
SWIDTH 504 0
DWIDTH 7 0
BBX 6 7 1 0
BITMAP
78
44
40
F0
80
8C
78
ENDCHAR
STARTCHAR EFFA
ENCODING 61434
SWIDTH 1008 0
DWIDTH 14 0
BBX 10 10 2 0
BITMAP
1E00
3F00
7F80
FFC0
FFC0
FFC0
FFC0
7F80
7F00
1E00
ENDCHAR
STARTCHAR EFFB
ENCODING 61435
SWIDTH 1008 0
DWIDTH 14 0
BBX 10 10 2 0
BITMAP
FFC0
FFC0
FFC0
FFC0
FFC0
FFC0
FFC0
FFC0
FFC0
FFC0
ENDCHAR
STARTCHAR EFFC
ENCODING 61436
SWIDTH 1008 0
DWIDTH 14 0
BBX 10 10 2 0
BITMAP
FFC0
8040
8040
8040
8040
8040
8040
8040
8040
FFC0
ENDCHAR
STARTCHAR EFFD
ENCODING 61437
SWIDTH 1008 0
DWIDTH 14 0
BBX 10 10 2 0
BITMAP
1E00
6100
8080
8040
8040
8040
8040
8080
4100
3E00
ENDCHAR
STARTCHAR EFFE
ENCODING 61438
SWIDTH 792 0
DWIDTH 11 0
BBX 9 10 1 0
BITMAP
0E00
3900
5180
D980
9980
9E00
8C00
8C00
C800
7800
ENDCHAR
STARTCHAR EFFF
ENCODING 61439
SWIDTH 504 0
DWIDTH 7 0
BBX 7 7 0 4
BITMAP
38
C4
EA
EA
DA
84
78
ENDCHAR
STARTCHAR FB00
ENCODING 64256
SWIDTH 576 0
DWIDTH 8 0
BBX 7 11 0 0
BITMAP
36
44
44
FE
44
44
44
44
44
44
44
ENDCHAR
STARTCHAR FB01
ENCODING 64257
SWIDTH 504 0
DWIDTH 7 0
BBX 6 11 0 0
BITMAP
24
40
40
E4
44
44
44
44
44
44
44
ENDCHAR
STARTCHAR FB02
ENCODING 64258
SWIDTH 504 0
DWIDTH 7 0
BBX 6 11 0 0
BITMAP
34
44
44
F4
44
44
44
44
44
44
44
ENDCHAR
STARTCHAR FB03
ENCODING 64259
SWIDTH 792 0
DWIDTH 11 0
BBX 10 11 0 0
BITMAP
3640
4400
4400
FE40
4440
4440
4440
4440
4440
4440
4440
ENDCHAR
STARTCHAR FB04
ENCODING 64260
SWIDTH 792 0
DWIDTH 11 0
BBX 10 11 0 0
BITMAP
3640
4440
4440
FE40
4440
4440
4440
4440
4440
4440
4440
ENDCHAR
ENDFONT
